<svg width="20" height="20" viewBox="0 0 20 20" fill="none" xmlns="http://www.w3.org/2000/svg">
<path d="M11.1012 11.8197H6.0032V10.3727H11.0677C11.4965 10.3727 11.8426 10.3057 12.1061 10.1717C12.3696 10.0333 12.5616 9.84347 12.6822 9.6023C12.8028 9.35667 12.8631 9.0753 12.8631 8.75821C12.8631 8.46345 12.8006 8.18879 12.6755 7.93422C12.5505 7.67965 12.3584 7.47421 12.0994 7.3179C11.8448 7.16159 11.5144 7.08343 11.1079 7.08343H9.20538V15.377H7.36312V5.62302H11.1012C11.8649 5.62302 12.5148 5.757 13.0507 6.02497C13.5866 6.29293 13.9975 6.66138 14.2833 7.13032C14.5736 7.59926 14.7188 8.13743 14.7188 8.74481C14.7188 9.38793 14.5714 9.93949 14.2766 10.3995C13.9863 10.8595 13.571 11.2123 13.0306 11.458C12.4947 11.6991 11.8515 11.8197 11.1012 11.8197ZM11.3692 12.4494V13.9031H6.0032V12.4494H11.3692Z" fill="#CCCCCC"/>
<circle cx="10" cy="10" r="8.95652" stroke="#CCCCCC" stroke-width="2.08696"/>
</svg>
