<svg width="20" height="14" viewBox="0 0 20 14" fill="none" xmlns="http://www.w3.org/2000/svg">
<path d="M19.3337 2H16.9431L15.1385 0.195387C15.0137 0.0699391 14.8444 0 14.667 0H10.0004C9.82297 0 9.65362 0.0699391 9.52907 0.195387L6.47178 3.25268C5.6917 4.03276 5.6917 5.30076 6.47178 6.08065L6.58651 6.19538C7.36658 6.97546 8.63459 6.97546 9.41447 6.19538L11.8051 3.80475C12.0658 3.54403 12.0658 3.12277 11.8051 2.86204C11.5444 2.60132 11.1231 2.60133 10.8624 2.86204L8.47177 5.25268C8.22177 5.50133 7.77904 5.50133 7.52906 5.25268L7.41433 5.13794C7.28963 5.01265 7.22103 4.84598 7.22103 4.66667C7.22103 4.48736 7.29037 4.31994 7.41433 4.19539L10.2764 1.33333H14.3911L16.1957 3.13794C16.3202 3.26339 16.4896 3.33333 16.6669 3.33333H18.6669V8.66667H16.6669C16.2983 8.66667 16.0003 8.96473 16.0003 9.33333C16.0003 9.70194 16.2983 10 16.6669 10H19.3336C19.7022 10 20.0003 9.70194 20.0003 9.33333V2.66666C20.0003 2.29806 19.7023 2 19.3337 2Z" fill="#CCCCCC"/>
<path d="M12.4713 5.52868C12.2106 5.26797 11.7893 5.26797 11.5286 5.52868C11.2679 5.7894 11.2679 6.21067 11.5286 6.47139L13.9219 8.86469C14.1186 9.06141 14.1953 9.27272 14.1566 9.51143C14.0859 9.95147 13.6453 10.4327 13.0353 10.7375C12.2433 11.1342 11.2293 11.3181 10.746 11.2582C10.536 11.2302 10.3266 11.3088 10.1813 11.4628C9.6192 12.0595 8.82053 12.4214 8.04464 12.4327C7.59466 12.4373 7.26072 12.318 7.13794 12.1961L3.80521 8.8634C3.7439 8.80135 3.66994 8.75269 3.58795 8.71875C3.5067 8.68393 3.41994 8.66667 3.33334 8.66667H1.33333V3.33333H3.33334C3.51072 3.33333 3.68006 3.26339 3.80461 3.13795L5.60938 1.33333H7.33334C7.70194 1.33333 8.00001 1.03527 8.00001 0.666667C8.00001 0.298065 7.70194 0 7.33334 0H5.33334C5.15596 0 4.98661 0.0699394 4.86206 0.195387L3.0573 2H0.666667C0.298065 2 0 2.29806 0 2.66667V9.33334C0 9.70194 0.298065 10 0.666667 10H3.0573L6.19524 13.138C6.59585 13.5386 7.25464 13.7653 8.00999 13.7653C8.02799 13.7653 8.0466 13.7653 8.0646 13.7647C9.10731 13.75 10.1339 13.3295 10.9246 12.6014H10.9412C11.7412 12.6014 12.8098 12.34 13.6313 11.9293C14.642 11.4239 15.3306 10.5993 15.4726 9.72394C15.5799 9.06128 15.364 8.42067 14.8646 7.92128L12.4713 5.52868Z" fill="#CCCCCC"/>
</svg>
