<svg width="20" height="21" viewBox="0 0 20 21" fill="none" xmlns="http://www.w3.org/2000/svg">
<path d="M17.6862 19.9999V18.2174C17.6862 17.2719 17.2731 16.3651 16.5377 15.6965C15.8022 15.028 14.8048 14.6523 13.7647 14.6523H5.92157C4.8815 14.6523 3.88404 15.028 3.1486 15.6965C2.41317 16.3651 2 17.2719 2 18.2174V19.9999" stroke="#CCCCCC" stroke-width="2" stroke-linecap="round" stroke-linejoin="round"/>
<path d="M9.8415 11.0871C12.0073 11.0871 13.7631 9.49101 13.7631 7.52208C13.7631 5.55316 12.0073 3.95703 9.8415 3.95703C7.67567 3.95703 5.91992 5.55316 5.91992 7.52208C5.91992 9.49101 7.67567 11.0871 9.8415 11.0871Z" stroke="#CCCCCC" stroke-width="2" stroke-linecap="round" stroke-linejoin="round"/>
<rect width="20" height="2" rx="1" fill="#CCCCCC"/>
</svg>
