<svg width="23" height="13" viewBox="0 0 23 13" fill="none" xmlns="http://www.w3.org/2000/svg">
<path d="M0.67748 2.09289C0.31262 1.72803 0.308572 1.13773 0.668393 0.767902L0.748329 0.685742C1.1152 0.308667 1.71961 0.304522 2.09161 0.676529L12.098 10.6829C12.4628 11.0477 12.4669 11.638 12.1071 12.0079L12.0271 12.09C11.6602 12.4671 11.0558 12.4712 10.6838 12.0992L0.67748 2.09289Z" fill="#B0B0B0"/>
<path d="M20.6277 0.67748C20.9926 0.31262 21.5828 0.308572 21.9527 0.668393L22.0348 0.748329C22.4119 1.1152 22.4161 1.71961 22.0441 2.09161L12.0377 12.098C11.6728 12.4628 11.0825 12.4669 10.7127 12.1071L10.6306 12.0271C10.2535 11.6602 10.2493 11.0558 10.6213 10.6838L20.6277 0.67748Z" fill="#B0B0B0"/>
</svg>
