<svg width="19" height="21" viewBox="0 0 19 21" fill="none" xmlns="http://www.w3.org/2000/svg">
<circle cx="11.8605" cy="16.0468" r="0.139535" fill="#D4DDE0"/>
<circle opacity="0.4" cx="12.5582" cy="16.0468" r="0.139535" fill="#D4DDE0"/>
<circle opacity="0.4" cx="13.2557" cy="16.0468" r="0.139535" fill="#D4DDE0"/>
<circle opacity="0.4" cx="13.9535" cy="16.0468" r="0.139535" fill="#D4DDE0"/>
<rect x="0.401163" y="0.401163" width="17.7209" height="9.17442" rx="0.715116" stroke="black" stroke-width="0.802326"/>
<mask id="path-6-inside-1_424_6102" fill="white">
<path d="M2.09302 13.9013C2.09302 12.9669 2.85049 12.2095 3.78488 12.2095V12.2095C4.71927 12.2095 5.47674 12.9669 5.47674 13.9013V15.2095C5.47674 15.5948 5.16438 15.9071 4.77906 15.9071H2.79069C2.40538 15.9071 2.09302 15.5948 2.09302 15.2095V13.9013Z"/>
</mask>
<path d="M2.09302 13.9013C2.09302 12.9669 2.85049 12.2095 3.78488 12.2095V12.2095C4.71927 12.2095 5.47674 12.9669 5.47674 13.9013V15.2095C5.47674 15.5948 5.16438 15.9071 4.77906 15.9071H2.79069C2.40538 15.9071 2.09302 15.5948 2.09302 15.2095V13.9013Z" stroke="black" stroke-width="1.60465" mask="url(#path-6-inside-1_424_6102)"/>
<mask id="path-7-inside-2_424_6102" fill="white">
<path d="M7.56982 13.9013C7.56982 12.9669 8.3273 12.2095 9.26168 12.2095V12.2095C10.1961 12.2095 10.9535 12.9669 10.9535 13.9013V15.2095C10.9535 15.5948 10.6412 15.9071 10.2559 15.9071H8.2675C7.88218 15.9071 7.56982 15.5948 7.56982 15.2095V13.9013Z"/>
</mask>
<path d="M7.56982 13.9013C7.56982 12.9669 8.3273 12.2095 9.26168 12.2095V12.2095C10.1961 12.2095 10.9535 12.9669 10.9535 13.9013V15.2095C10.9535 15.5948 10.6412 15.9071 10.2559 15.9071H8.2675C7.88218 15.9071 7.56982 15.5948 7.56982 15.2095V13.9013Z" stroke="black" stroke-width="1.60465" mask="url(#path-7-inside-2_424_6102)"/>
<mask id="path-8-inside-3_424_6102" fill="white">
<path d="M13.0464 13.9013C13.0464 12.9669 13.8039 12.2095 14.7382 12.2095V12.2095C15.6726 12.2095 16.4301 12.9669 16.4301 13.9013V15.2095C16.4301 15.5948 16.1177 15.9071 15.7324 15.9071H13.7441C13.3587 15.9071 13.0464 15.5948 13.0464 15.2095V13.9013Z"/>
</mask>
<path d="M13.0464 13.9013C13.0464 12.9669 13.8039 12.2095 14.7382 12.2095V12.2095C15.6726 12.2095 16.4301 12.9669 16.4301 13.9013V15.2095C16.4301 15.5948 16.1177 15.9071 15.7324 15.9071H13.7441C13.3587 15.9071 13.0464 15.5948 13.0464 15.2095V13.9013Z" stroke="black" stroke-width="1.60465" mask="url(#path-8-inside-3_424_6102)"/>
<mask id="path-9-inside-4_424_6102" fill="white">
<path d="M2.09302 18.9941C2.09302 18.0597 2.85049 17.3022 3.78488 17.3022V17.3022C4.71927 17.3022 5.47674 18.0597 5.47674 18.9941V20.3022C5.47674 20.6876 5.16438 20.9999 4.77906 20.9999H2.79069C2.40538 20.9999 2.09302 20.6876 2.09302 20.3022V18.9941Z"/>
</mask>
<path d="M2.09302 18.9941C2.09302 18.0597 2.85049 17.3022 3.78488 17.3022V17.3022C4.71927 17.3022 5.47674 18.0597 5.47674 18.9941V20.3022C5.47674 20.6876 5.16438 20.9999 4.77906 20.9999H2.79069C2.40538 20.9999 2.09302 20.6876 2.09302 20.3022V18.9941Z" stroke="black" stroke-width="1.60465" mask="url(#path-9-inside-4_424_6102)"/>
<mask id="path-10-inside-5_424_6102" fill="white">
<path d="M7.56982 18.9941C7.56982 18.0597 8.3273 17.3022 9.26168 17.3022V17.3022C10.1961 17.3022 10.9535 18.0597 10.9535 18.9941V20.3022C10.9535 20.6876 10.6412 20.9999 10.2559 20.9999H8.2675C7.88218 20.9999 7.56982 20.6876 7.56982 20.3022V18.9941Z"/>
</mask>
<path d="M7.56982 18.9941C7.56982 18.0597 8.3273 17.3022 9.26168 17.3022V17.3022C10.1961 17.3022 10.9535 18.0597 10.9535 18.9941V20.3022C10.9535 20.6876 10.6412 20.9999 10.2559 20.9999H8.2675C7.88218 20.9999 7.56982 20.6876 7.56982 20.3022V18.9941Z" stroke="black" stroke-width="1.60465" mask="url(#path-10-inside-5_424_6102)"/>
<mask id="path-11-inside-6_424_6102" fill="white">
<path d="M13.0464 18.9941C13.0464 18.0597 13.8039 17.3022 14.7382 17.3022V17.3022C15.6726 17.3022 16.4301 18.0597 16.4301 18.9941V20.3022C16.4301 20.6876 16.1177 20.9999 15.7324 20.9999H13.7441C13.3587 20.9999 13.0464 20.6876 13.0464 20.3022V18.9941Z"/>
</mask>
<path d="M13.0464 18.9941C13.0464 18.0597 13.8039 17.3022 14.7382 17.3022V17.3022C15.6726 17.3022 16.4301 18.0597 16.4301 18.9941V20.3022C16.4301 20.6876 16.1177 20.9999 15.7324 20.9999H13.7441C13.3587 20.9999 13.0464 20.6876 13.0464 20.3022V18.9941Z" stroke="black" stroke-width="1.60465" mask="url(#path-11-inside-6_424_6102)"/>
</svg>
