<svg width="25" height="30" viewBox="0 0 25 30" fill="none" xmlns="http://www.w3.org/2000/svg">
<path d="M4.68165 1H12.4954C18.5705 1 23.4954 5.92487 23.4954 12V25.3184C23.4954 27.3517 21.8471 29 19.8138 29H4.68165C2.64833 29 1 27.3517 1 25.3184V4.68165C1 2.64833 2.64833 1 4.68165 1Z" stroke="#00753A" stroke-width="2"/>
<path d="M14 1.04938C18.7244 1.51844 22.4816 5.27558 22.9506 10H17.6816C15.6483 10 14 8.35167 14 6.31835V1.04938Z" stroke="#00753A" stroke-width="2"/>
<path d="M6.28125 24H5.01953L5.02734 22.9453H6.28125C6.54167 22.9453 6.76172 22.8828 6.94141 22.7578C7.1237 22.6328 7.26172 22.4466 7.35547 22.1992C7.45182 21.9492 7.5 21.6419 7.5 21.2773V21.0312C7.5 20.7578 7.47266 20.5182 7.41797 20.3125C7.36589 20.1042 7.28776 19.931 7.18359 19.793C7.07943 19.6523 6.94922 19.5469 6.79297 19.4766C6.63932 19.4062 6.46224 19.3711 6.26172 19.3711H4.99609V18.3125H6.26172C6.64714 18.3125 7 18.3789 7.32031 18.5117C7.64323 18.6419 7.92188 18.8294 8.15625 19.0742C8.39323 19.3164 8.57552 19.6042 8.70312 19.9375C8.83333 20.2682 8.89844 20.6354 8.89844 21.0391V21.2773C8.89844 21.6784 8.83333 22.0456 8.70312 22.3789C8.57552 22.7122 8.39453 23 8.16016 23.2422C7.92578 23.4844 7.64844 23.6719 7.32812 23.8047C7.01042 23.9349 6.66146 24 6.28125 24ZM5.80469 18.3125V24H4.43359V18.3125H5.80469ZM14.5058 21.043V21.2734C14.5058 21.7083 14.4446 22.099 14.3222 22.4453C14.2024 22.7891 14.0318 23.0833 13.8105 23.3281C13.5891 23.5703 13.3274 23.7565 13.0253 23.8867C12.7232 24.0143 12.3899 24.0781 12.0253 24.0781C11.6581 24.0781 11.3222 24.0143 11.0175 23.8867C10.7154 23.7565 10.4524 23.5703 10.2284 23.3281C10.0071 23.0833 9.83521 22.7891 9.71281 22.4453C9.59302 22.099 9.53312 21.7083 9.53312 21.2734V21.043C9.53312 20.6081 9.59302 20.2174 9.71281 19.8711C9.83521 19.5247 10.0058 19.2305 10.2245 18.9883C10.4459 18.7435 10.7076 18.5573 11.0097 18.4297C11.3144 18.2995 11.6503 18.2344 12.0175 18.2344C12.3821 18.2344 12.7154 18.2995 13.0175 18.4297C13.3222 18.5573 13.5852 18.7435 13.8066 18.9883C14.0279 19.2305 14.1998 19.5247 14.3222 19.8711C14.4446 20.2174 14.5058 20.6081 14.5058 21.043ZM13.1152 21.2734V21.0352C13.1152 20.7539 13.0904 20.5065 13.0409 20.293C12.9941 20.0768 12.9237 19.8958 12.83 19.75C12.7362 19.6042 12.6204 19.4948 12.4823 19.4219C12.3469 19.3464 12.192 19.3086 12.0175 19.3086C11.8352 19.3086 11.6764 19.3464 11.5409 19.4219C11.4055 19.4948 11.2922 19.6042 11.2011 19.75C11.1099 19.8958 11.0409 20.0768 10.9941 20.293C10.9498 20.5065 10.9277 20.7539 10.9277 21.0352V21.2734C10.9277 21.5521 10.9498 21.7995 10.9941 22.0156C11.0409 22.2292 11.1099 22.4102 11.2011 22.5586C11.2948 22.707 11.4094 22.819 11.5448 22.8945C11.6829 22.9701 11.843 23.0078 12.0253 23.0078C12.1998 23.0078 12.3547 22.9701 12.4902 22.8945C12.6256 22.819 12.7389 22.707 12.83 22.5586C12.9237 22.4102 12.9941 22.2292 13.0409 22.0156C13.0904 21.7995 13.1152 21.5521 13.1152 21.2734ZM18.5311 22.0742H19.8983C19.8801 22.4701 19.7733 22.819 19.578 23.1211C19.3827 23.4232 19.1118 23.6589 18.7655 23.8281C18.4217 23.9948 18.0155 24.0781 17.5467 24.0781C17.1665 24.0781 16.8267 24.0143 16.5272 23.8867C16.2303 23.7591 15.9777 23.5755 15.7694 23.3359C15.5636 23.0964 15.4061 22.806 15.2967 22.4648C15.1899 22.1237 15.1366 21.7396 15.1366 21.3125V21.0039C15.1366 20.5768 15.1926 20.1927 15.3045 19.8516C15.4191 19.5078 15.5806 19.2161 15.7889 18.9766C15.9998 18.7344 16.2524 18.5495 16.5467 18.4219C16.841 18.2943 17.1678 18.2305 17.5272 18.2305C18.022 18.2305 18.4399 18.319 18.7811 18.4961C19.1222 18.6732 19.3866 18.9167 19.5741 19.2266C19.7616 19.5339 19.8722 19.8841 19.9061 20.2773H18.5389C18.5337 20.0638 18.4972 19.8854 18.4295 19.7422C18.3618 19.5964 18.2551 19.487 18.1092 19.4141C17.9634 19.3411 17.7694 19.3047 17.5272 19.3047C17.3579 19.3047 17.2108 19.3359 17.0858 19.3984C16.9608 19.4609 16.8566 19.5599 16.7733 19.6953C16.6899 19.8307 16.6274 20.0065 16.5858 20.2227C16.5467 20.4362 16.5272 20.694 16.5272 20.9961V21.3125C16.5272 21.6146 16.5454 21.8724 16.5819 22.0859C16.6183 22.2995 16.6769 22.474 16.7577 22.6094C16.8384 22.7448 16.9426 22.8451 17.0702 22.9102C17.2004 22.9727 17.3592 23.0039 17.5467 23.0039C17.7551 23.0039 17.9308 22.9714 18.0741 22.9062C18.2173 22.8385 18.328 22.737 18.4061 22.6016C18.4842 22.4635 18.5259 22.2878 18.5311 22.0742Z" fill="#00753A"/>
</svg>
