<svg width="20" height="19" viewBox="0 0 20 19" fill="none" xmlns="http://www.w3.org/2000/svg">
<path d="M9.47461 0.682708C9.89672 0.312916 10.5799 0.309513 11.0068 0.675076C11.4406 1.04656 11.4445 1.6569 11.0156 2.03268L2.32012 9.65042C1.89801 10.0202 1.21484 10.0236 0.787962 9.65805C0.35416 9.28656 0.3502 8.67623 0.779151 8.30044L9.47461 0.682708Z" fill="#666666"/>
<path d="M11.0214 15.9933C11.4435 16.3631 11.4474 16.9616 11.0301 17.3356C10.6061 17.7156 9.90942 17.7191 9.48047 17.3433L0.785015 9.72558C0.362907 9.35579 0.359022 8.7573 0.776303 8.38332C1.20035 8.00329 1.89703 7.99982 2.32598 8.3756L11.0214 15.9933Z" fill="#666666"/>
<path d="M17.1895 0.682708C17.6116 0.312916 18.2947 0.309513 18.7216 0.675076C19.1554 1.04656 19.1594 1.6569 18.7304 2.03268L10.035 9.65042C9.61285 10.0202 8.92969 10.0236 8.50281 9.65805C8.069 9.28656 8.06504 8.67623 8.494 8.30044L17.1895 0.682708Z" fill="#666666"/>
<path d="M18.7363 15.9933C19.1584 16.3631 19.1623 16.9616 18.745 17.3356C18.3209 17.7156 17.6243 17.7191 17.1953 17.3433L8.49986 9.72558C8.07775 9.35579 8.07387 8.7573 8.49115 8.38332C8.91519 8.00329 9.61187 7.99982 10.0408 8.3756L18.7363 15.9933Z" fill="#666666"/>
</svg>
