<svg width="19" height="20" viewBox="0 0 19 20" fill="none" xmlns="http://www.w3.org/2000/svg">
<path d="M17.9301 2.87904L15.7706 0.719819V0.71962C15.3101 0.259028 14.6853 0 14.0338 0C13.3823 0 12.7577 0.259008 12.2971 0.71962L1.63601 11.3807C1.58039 11.4381 1.53572 11.5053 1.50422 11.5789C1.49485 11.6012 1.48687 11.6242 1.47989 11.6473C1.46893 11.6732 1.45956 11.6995 1.45198 11.7264L0.321045 17.5434H0.320845C0.282762 17.7398 0.334403 17.943 0.461615 18.0974C0.589026 18.2519 0.778645 18.3412 0.978641 18.3412C1.02151 18.3412 1.06438 18.337 1.10645 18.329L6.92344 17.1979C7.05444 17.1726 7.17487 17.1084 7.26918 17.0139L17.9303 6.35279C18.3902 5.8916 18.6484 5.26709 18.6484 4.61592C18.6484 3.96475 18.3902 3.34002 17.9303 2.87904L17.9301 2.87904ZM3.05683 11.8541L11.7098 3.20215L13.1054 4.59749L4.45288 13.25L3.05683 11.8541ZM6.46683 15.9213L1.82539 16.8238L2.52663 13.2186L4.96042 15.6524C5.22301 15.9076 5.64196 15.9046 5.90095 15.6456C6.15996 15.3866 6.16295 14.9677 5.90773 14.7048L5.39989 14.1972L14.0519 5.54471L15.4476 6.94025L6.46683 15.9213ZM16.9829 5.40521L16.3953 5.99283L12.657 2.25446L13.2446 1.66684C13.4573 1.46386 13.7401 1.35061 14.0342 1.35061C14.3281 1.35061 14.6108 1.46386 14.8236 1.66684L16.983 3.82606C17.1922 4.03562 17.3096 4.31955 17.3094 4.61566C17.3094 4.91176 17.1922 5.19567 16.983 5.40526L16.9829 5.40521ZM16.0871 19.33C16.0871 19.6999 15.7872 20 15.4171 20H0.669954C0.299884 20 0 19.6999 0 19.33C0 18.96 0.299884 18.6601 0.669954 18.6601H15.4171C15.7872 18.6601 16.0871 18.96 16.0871 19.33Z" fill="#ABABAB"/>
</svg>
