<svg width="197" height="197" viewBox="0 0 197 197" fill="none" xmlns="http://www.w3.org/2000/svg">
<path d="M8.19292 20.4796V8.19109H16.384V0H6.14423C2.76573 0 0 2.76423 0 6.14423V20.4796H8.19292Z" fill="#69AB52"/>
<path d="M176.125 8.19292H188.413V16.384H196.605V6.14423C196.605 2.76573 193.84 0 190.46 0H176.125V8.19292Z" fill="#69AB52"/>
<path d="M28.6719 0H40.9603V8.19109H28.6719V0Z" fill="#69AB52"/>
<path d="M53.248 0H65.5365V8.19109H53.248V0Z" fill="#69AB52"/>
<path d="M77.8242 0H90.1127V8.19109H77.8242V0Z" fill="#69AB52"/>
<path d="M102.398 0H114.687V8.19109H102.398V0Z" fill="#69AB52"/>
<path d="M126.975 0H139.263V8.19109H126.975V0Z" fill="#69AB52"/>
<path d="M151.549 0H163.837V8.19109H151.549V0Z" fill="#69AB52"/>
<path d="M188.414 28.6725H196.605V40.961H188.414V28.6725Z" fill="#69AB52"/>
<path d="M188.414 53.2472H196.605V65.5357H188.414V53.2472Z" fill="#69AB52"/>
<path d="M188.414 77.8227H196.605V90.1112H188.414V77.8227Z" fill="#69AB52"/>
<path d="M188.414 102.398H196.605V114.687H188.414V102.398Z" fill="#69AB52"/>
<path d="M188.414 126.974H196.605V139.262H188.414V126.974Z" fill="#69AB52"/>
<path d="M188.414 151.549H196.605V163.838H188.414V151.549Z" fill="#69AB52"/>
<path d="M0 155.645H8.19109V167.933H0V155.645Z" fill="#69AB52"/>
<path d="M0 131.07H8.19109V143.358H0V131.07Z" fill="#69AB52"/>
<path d="M0 106.494H8.19109V118.783H0V106.494Z" fill="#69AB52"/>
<path d="M0 81.9186H8.19109V94.2071H0V81.9186Z" fill="#69AB52"/>
<path d="M0 57.3431H8.19109V69.6316H0V57.3431Z" fill="#69AB52"/>
<path d="M0 32.7677H8.19109V45.0561H0V32.7677Z" fill="#69AB52"/>
<path d="M188.414 176.125V188.413H180.223V196.604H190.462C193.841 196.604 196.607 193.84 196.607 190.46V176.125H188.414Z" fill="#69AB52"/>
<path d="M20.4815 188.412H8.19305V180.221H0.00195312V190.461C0.00195312 193.84 2.76618 196.605 6.14619 196.605H20.4815V188.412Z" fill="#69AB52"/>
<path d="M155.646 188.412H167.935V196.603H155.646V188.412Z" fill="#69AB52"/>
<path d="M131.07 188.412H143.359V196.603H131.07V188.412Z" fill="#69AB52"/>
<path d="M106.494 188.412H118.783V196.603H106.494V188.412Z" fill="#69AB52"/>
<path d="M81.9199 188.412H94.2084V196.603H81.9199V188.412Z" fill="#69AB52"/>
<path d="M57.3438 188.412H69.6322V196.603H57.3438V188.412Z" fill="#69AB52"/>
<path d="M32.7695 188.412H45.058V196.603H32.7695V188.412Z" fill="#69AB52"/>
</svg>
