<svg width="31" height="29" viewBox="0 0 31 29" fill="none" xmlns="http://www.w3.org/2000/svg">
<path d="M23.6633 4.932C22.7258 4.932 21.7883 5.67927 21.7883 6.72545C21.7883 7.62218 22.5695 8.5189 23.6633 8.5189C24.6007 8.5189 25.5382 7.77163 25.5382 6.72545C25.5382 5.67927 24.757 4.932 23.6633 4.932ZM15.6946 19.1302C12.8822 19.1302 10.6947 17.0378 10.6947 14.3476C10.6947 11.6574 12.8822 9.56508 15.6946 9.56508C18.5071 9.56508 20.6945 11.6574 20.6945 14.3476C20.6945 17.0378 18.5071 19.1302 15.6946 19.1302ZM15.6946 7.02436C11.4759 7.02436 8.03847 10.3124 8.03847 14.3476C8.03847 18.3829 11.4759 21.6709 15.6946 21.6709C19.9133 21.6709 23.3508 18.3829 23.3508 14.3476C23.3508 10.3124 19.9133 7.02436 15.6946 7.02436ZM15.6946 0C11.6322 0 11.1634 0 9.4447 0.149454C4.13228 0.298909 1.00732 3.288 0.851072 8.36945C0.694824 10.0134 0.694824 10.4618 0.694824 14.3476C0.694824 18.2334 0.694824 18.6818 0.851072 20.3258C1.00732 25.4073 4.13228 28.3963 9.4447 28.5458C11.0072 28.5458 11.6322 28.6953 15.6946 28.6953C19.7571 28.6953 20.2258 28.6952 21.9445 28.5458C27.257 28.3963 30.3819 25.4073 30.5382 20.3258C30.5382 18.8313 30.6944 18.2334 30.6944 14.3476C30.6944 10.4618 30.6944 10.0134 30.5382 8.36945C30.3819 3.288 27.257 0.298909 21.9445 0.149454C20.2258 0 19.7571 0 15.6946 0ZM15.6946 2.54073C19.7571 2.54073 20.2258 2.54073 21.7883 2.69018C25.8507 2.83963 27.7257 4.78254 27.8819 8.5189C27.8819 10.0134 28.0382 10.4618 28.0382 14.3476C28.0382 18.2334 28.0382 18.6818 27.8819 20.1763C27.7257 24.0622 25.8507 25.8556 21.7883 26.0051C20.2258 26.0051 19.7571 26.1545 15.6946 26.1545C11.6322 26.1545 11.1634 26.1545 9.60095 26.0051C5.53851 25.8556 3.66353 23.9127 3.50728 20.1763C3.50728 18.6818 3.35104 18.2334 3.35104 14.3476C3.35104 10.4618 3.35104 10.0134 3.50728 8.5189C3.66353 4.63309 5.53851 2.83963 9.60095 2.69018C11.1634 2.54073 11.6322 2.54073 15.6946 2.54073Z" fill="white"/>
</svg>
