<svg width="12" height="15" viewBox="0 0 12 15" fill="none" xmlns="http://www.w3.org/2000/svg">
<path d="M8.72981 6.01175C8.72981 7.51185 7.50532 8.73084 5.99122 8.73084C4.47711 8.73084 3.25262 7.51185 3.25262 6.01175C3.25262 4.51166 4.47711 3.29266 5.99122 3.29266C7.50532 3.29266 8.72981 4.51166 8.72981 6.01175Z" stroke="black" stroke-width="0.526732"/>
<path d="M1.40017 10.1122C0.680405 8.84942 0.558224 8.27254 0.329507 7.13037C0.205677 5.98731 0.225282 4.83764 0.655709 3.80525C1.09266 2.75721 1.83273 1.86116 2.78259 1.2306C3.73247 0.600034 4.84941 0.263366 5.99215 0.263366C7.13489 0.263366 8.25183 0.600034 9.20171 1.2306C10.1516 1.86116 10.8916 2.75721 11.3286 3.80525C11.7609 4.84208 11.8126 5.99446 11.6556 7.1265C11.4258 8.27351 11.2687 8.94375 10.6181 10.1147C10.2955 10.6951 9.52921 11.7561 8.6298 12.6701C8.1809 13.1264 7.70618 13.5384 7.2444 13.8348C6.7779 14.1341 6.3512 14.298 5.99215 14.298C5.6707 14.298 5.26929 14.142 4.81582 13.8485C4.36847 13.5589 3.89973 13.1549 3.45046 12.7041C2.55039 11.8009 1.75767 10.7395 1.40017 10.1122Z" stroke="black" stroke-width="0.526732"/>
</svg>
