<svg width="164" height="163" viewBox="0 0 164 163" fill="none" xmlns="http://www.w3.org/2000/svg">
<path d="M80.5196 0.175531C77.2117 0.952593 73.6998 4.82517 70.8873 10.8124C67.2297 18.5957 63.7614 33.4109 62.071 48.5063C61.9399 49.6655 61.8233 50.6464 61.8087 50.6846C61.7942 50.7355 60.9344 50.4298 59.8852 50.0094C49.7866 45.9712 36.9337 41.7675 28.3361 39.6656C10.2518 35.2707 -0.444342 37.1051 0.604867 44.4171C1.55207 50.9266 11.4904 61.0539 28.8461 73.1684C31.7606 75.2066 35.8554 77.92 38.901 79.8308C40.2708 80.697 41.3929 81.4359 41.422 81.4868C41.4366 81.5378 40.8246 81.9836 40.0377 82.4677C37.2398 84.1874 31.0902 88.2638 27.8843 90.5058C12.0587 101.614 3.41733 110.098 0.983748 116.888C0.648584 117.818 0.590295 118.238 0.575723 119.461C0.575723 120.913 0.590295 120.951 1.12947 121.907C2.36812 124.111 4.90371 125.219 9.50857 125.588C14.2446 125.958 22.1719 124.837 31.1777 122.506C39.6151 120.327 48.7228 117.308 59.2877 113.168C60.643 112.633 61.765 112.213 61.7942 112.238C61.8087 112.251 61.9253 113.232 62.0565 114.429C63.3971 126.238 65.9473 138.709 68.6723 146.658C70.9748 153.371 73.9184 158.378 77.168 161.04C79.6599 163.091 82.1809 163.524 84.8622 162.378C86.1737 161.804 88.3304 159.932 89.5254 158.314C94.99 150.926 99.2597 136.34 101.781 116.442C102.014 114.531 102.218 112.799 102.218 112.582C102.218 112.378 102.247 112.2 102.276 112.2C102.305 112.2 103.384 112.608 104.651 113.104C119.136 118.786 132.456 122.837 142.321 124.569C146.27 125.257 148.296 125.461 151.618 125.537C155.101 125.614 156.806 125.461 158.729 124.888C163.465 123.486 164.762 119.996 162.343 115.181C159.414 109.346 153.352 103.27 141.913 94.6841C136.74 90.8116 129.235 85.6651 124.047 82.4677C123.26 81.9836 122.619 81.5505 122.619 81.5123C122.634 81.4741 123.1 81.1429 123.668 80.7989C132.791 75.2066 142.802 67.9965 149.695 62.073C157.068 55.7418 161.396 50.6209 162.999 46.3279C163.436 45.1432 163.495 44.8502 163.495 43.5382C163.495 42.0859 163.48 42.0477 162.941 41.0923C161.659 38.7993 159.05 37.7293 154.052 37.4108C147.698 37.0032 139.13 38.4936 126.991 42.1242C119.967 44.226 112.652 46.761 104.972 49.7929C103.559 50.3406 102.364 50.7992 102.305 50.7992C102.262 50.7992 102.218 50.6209 102.218 50.4171C102.218 50.2005 102.014 48.468 101.781 46.5572C99.2597 26.6593 94.99 12.0735 89.5254 4.68504C88.4907 3.27104 86.2029 1.23284 85.0808 0.710557C83.5798 0.00992723 82.0206 -0.181154 80.5196 0.175531ZM81.8749 3.41117C84.9934 4.72326 88.2867 10.2901 90.9243 18.6976C93.5036 26.9651 95.7186 38.7611 96.8115 50.226C96.899 51.1304 97.0155 52.1241 97.0593 52.4298L97.1321 52.9775L94.9026 53.9075C92.877 54.761 84.221 58.6335 82.7346 59.3469C82.2392 59.5889 82.0643 59.6272 81.8457 59.5125C80.9422 59.0157 72.534 55.2705 68.4392 53.5253C65.7724 52.3916 63.5574 51.4362 63.5137 51.3979C63.3388 51.2451 64.5483 41.5891 65.3498 36.7229C67.3317 24.7485 70.1733 15.2072 73.7289 8.685C75.3756 5.64044 77.1534 3.80607 79.0478 3.19461C79.7765 2.95257 81.0297 3.05448 81.8749 3.41117ZM15.2209 38.8885C26.1356 39.9076 41.0577 44.1369 58.836 51.2706L61.561 52.3661V52.8247C61.561 53.0795 61.4299 54.71 61.2841 56.468C61.1238 58.2132 60.8907 61.6526 60.7595 64.1112C60.6284 66.557 60.4827 69.0411 60.4535 69.6016L60.3661 70.6462L59.1129 71.3213C57.131 72.3659 51.0835 75.7926 48.6062 77.2576L46.3766 78.5824L45.7646 78.2384C43.2436 76.7862 35.0102 71.4869 31.1777 68.8373C16.7948 58.9011 7.46845 50.175 5.32631 44.6464C4.87457 43.4999 4.77256 42.2006 5.07858 41.4108C5.60318 40.0223 7.30815 39.1433 10.1206 38.7739C11.0095 38.6592 13.414 38.7102 15.2209 38.8885ZM155.407 39.0159C159.006 39.8567 160.056 41.7675 158.686 45.0031C156.063 51.1686 145.265 60.7991 128.74 71.7162C124.892 74.2512 118.51 78.2767 118.014 78.4677C117.752 78.5696 117.359 78.3786 115.464 77.2576C112.987 75.7926 106.939 72.3659 104.957 71.3213L103.704 70.6462L103.617 69.1048C103.573 68.2513 103.427 65.7417 103.296 63.5379C103.18 61.3342 102.946 58.0858 102.801 56.3406C102.64 54.5826 102.509 52.9775 102.509 52.761C102.509 52.3788 102.553 52.3533 105.249 51.2706C110.058 49.347 117.854 46.4808 121.891 45.1687C127.632 43.3089 129.964 42.6337 134.423 41.5127C140.703 39.9458 144.623 39.2707 150.234 38.7739C151.341 38.672 154.605 38.8248 155.407 39.0159ZM70.013 55.9584C73.3646 57.4234 79.8202 60.3533 79.9659 60.4807C80.0388 60.5316 79.6453 60.7991 79.0916 61.0666C74.0058 63.5252 63.9363 68.6207 62.8434 69.2831C62.6394 69.4232 62.4208 69.5252 62.3771 69.5252C62.2313 69.5252 62.2751 67.487 62.5082 63.5889C62.7559 59.3979 63.1348 54.1113 63.2514 53.5126L63.3243 53.1177L65.3935 53.9712C66.5302 54.4552 68.614 55.3469 70.013 55.9584ZM97.307 55.4743C97.4527 56.8756 98.1085 67.6143 98.0502 67.6143C98.0356 67.6143 96.6658 66.9137 94.99 66.0475C93.3142 65.1812 90.3851 63.7036 88.4907 62.7609C86.5817 61.8182 84.7893 60.9265 84.4979 60.7864L83.9733 60.5061L85.9406 59.6017C88.6073 58.366 97.0301 54.6208 97.1321 54.6208C97.1758 54.6208 97.2633 55.003 97.307 55.4743ZM82.7346 61.7673C84.527 62.5698 97.6422 69.1303 98.1085 69.4742C98.2542 69.5634 98.4145 81.3849 98.3271 85.2575L98.2396 89.716L96.1849 90.7988C93.6202 92.1364 86.6109 95.665 84.0462 96.9007L82.108 97.8306L80.8402 97.2191C76.3228 95.0918 62.3479 87.8689 62.1148 87.5632C61.969 87.3848 61.969 78.6333 62.1002 74.5187L62.1876 71.436L65.7724 69.5634C71.9511 66.3532 72.3154 66.1621 76.5705 64.0857C81.0734 61.8692 81.8312 61.5125 82.006 61.4998C82.0643 61.4998 82.3995 61.6271 82.7346 61.7673ZM60.2786 79.5505L60.2204 86.5823L59.1129 85.9708C57.3642 85.0027 50.0926 80.8499 48.9122 80.1365L47.863 79.4868L50.9523 77.7034C54.6829 75.576 60.3078 72.4296 60.3224 72.4933C60.3224 72.506 60.3078 75.678 60.2786 79.5505ZM107.391 74.4678C112.244 77.1684 116.207 79.4868 116.134 79.5887C116.047 79.7034 109.664 83.4231 106.007 85.4868L103.894 86.6842L103.865 86.1619C103.835 85.8689 103.806 82.6715 103.792 79.0537L103.748 72.4678L104.258 72.748C104.535 72.8882 105.948 73.6652 107.391 74.4678ZM45.3566 83.8307C48.271 85.5887 54.5663 89.2065 57.6993 90.9262C59.142 91.716 60.3369 92.3784 60.3661 92.3912C60.3952 92.4166 60.4827 93.7669 60.5555 95.4102C60.6721 98.1363 60.9781 102.977 61.2113 105.958L61.3133 107.181L59.9435 107.729C41.5532 115.143 28.9335 119.066 17.1882 120.977C14.2009 121.474 8.7071 121.627 7.06042 121.257C3.50477 120.467 2.35355 118.837 3.28618 115.894C4.6997 111.41 13.5597 102.608 24.9844 94.3529C31.2214 89.8434 42.7627 82.3021 43.127 82.4932C43.2144 82.5314 44.2053 83.1301 45.3566 83.8307ZM123.494 83.9199C130.08 87.9708 138.43 93.7033 143.458 97.614C146.168 99.7159 151.181 104.034 153.134 105.958C158.657 111.359 161.09 114.913 161.09 117.55C161.09 119.754 159.589 120.913 156.106 121.385C154.751 121.576 150.175 121.448 148.237 121.181C140.397 120.098 131.231 117.703 120.142 113.83C115.114 112.072 106.794 108.901 103.5 107.474C102.699 107.13 102.728 107.27 102.946 104.939C103.063 103.665 103.165 101.983 103.617 93.9198L103.704 92.3912L106.488 90.8625C109.154 89.4103 118.145 84.2129 120.142 82.99L121.074 82.404L121.526 82.697C121.759 82.8499 122.648 83.4104 123.494 83.9199ZM65.6267 95.1937C67.3462 96.0854 70.4356 97.665 72.5048 98.6968L76.2791 100.582L74.341 101.474C73.2918 101.958 70.3044 103.283 67.7251 104.417L63.0328 106.455L62.9454 105.92C62.6685 104.162 62.1731 93.3975 62.3771 93.4994C62.4499 93.5376 63.9072 94.302 65.6267 95.1937ZM98.0356 96.1109C98.021 96.5185 97.8899 98.6586 97.7587 100.862C97.6276 103.066 97.511 104.888 97.4964 104.901C97.4673 104.926 88.3304 100.888 87.9661 100.684C87.835 100.62 88.243 100.353 89.2776 99.8561C90.1083 99.4484 92.4253 98.2765 94.4217 97.2574C96.4327 96.2255 98.0648 95.3848 98.0793 95.3848C98.0793 95.3848 98.0648 95.716 98.0356 96.1109ZM85.0954 104.76C86.6983 105.499 90.0645 106.99 92.571 108.085L97.1321 110.073L97.0593 110.595C97.0155 110.888 96.899 111.856 96.8115 112.773C95.7186 124.238 93.5036 136.034 90.9243 144.301C88.2867 152.709 85.0079 158.25 81.8749 159.601C80.7965 160.059 79.3684 160.034 78.3921 159.537C76.658 158.645 75.2153 157.04 73.7289 154.327C70.2461 147.983 67.3171 138.212 65.3498 126.276C64.6066 121.767 63.3243 111.627 63.4846 111.512C63.4991 111.487 64.6066 111.028 65.9327 110.48C69.1241 109.168 75.6816 106.289 79.1207 104.697C80.6508 103.996 81.9623 103.41 82.0352 103.41C82.1226 103.41 83.4924 104.022 85.0954 104.76Z" fill="#3D8ED9"/>
<path d="M79.7033 74.0983C78.1294 74.4932 77.1531 75.0028 75.8999 76.0856C73.9909 77.7416 73.102 79.7161 73.2623 81.9454C73.612 86.4167 77.9546 89.5759 83.0986 89.1173C88.0823 88.6587 91.6963 84.2766 90.6471 79.9709C90.2682 78.4168 89.5396 77.2703 88.1698 76.0856C86.902 74.99 85.7799 74.4168 84.1915 74.0601C83.0112 73.7926 80.8399 73.8053 79.7033 74.0983Z" fill="#3D8ED9"/>
</svg>
