<svg width="30" height="30" viewBox="0 0 30 30" fill="none" xmlns="http://www.w3.org/2000/svg">
<path d="M23.2678 2.49364C20.2417 0.48861 16.5906 -0.35011 12.9927 0.133724C9.39523 0.617523 6.0952 2.39043 3.70542 5.12415C1.31607 7.85753 -0.00069049 11.3653 2.71637e-07 14.996H2.90137C2.90171 12.0713 3.96178 9.24581 5.88538 7.04308C7.80889 4.84 10.4654 3.40958 13.3627 3.01582C16.26 2.62211 19.2018 3.29213 21.643 4.9021C24.6833 6.92536 26.6568 10.2056 27.02 13.8403C27.327 16.9995 26.3795 20.1526 24.3824 22.6188C22.3854 25.0856 19.4988 26.6676 16.3456 27.0242C13.1926 27.3805 10.0259 26.4827 7.52888 24.524L17.4076 14.6426V20.3162H20.309V11.1266C20.309 10.742 20.1559 10.3729 19.884 10.1007C19.6118 9.82876 19.2428 9.67558 18.8583 9.67558H9.6712V12.5777H15.3578L3.38518 24.582L4.41018 25.6073C6.39172 27.5897 8.889 28.977 11.619 29.6112C14.349 30.2455 17.2021 30.1014 19.8542 29.1956C22.5066 28.2897 24.8517 26.6582 26.6238 24.4862C28.3956 22.3145 29.5234 19.689 29.8789 16.9084C30.2344 14.1278 29.8034 11.303 28.6347 8.75477C27.4664 6.20691 25.6069 4.03761 23.2678 2.49309L23.2678 2.49364Z" fill="#69AB52"/>
</svg>
