<svg width="25" height="30" viewBox="0 0 25 30" fill="none" xmlns="http://www.w3.org/2000/svg">
<path d="M4.68165 1H12.4954C18.5705 1 23.4954 5.92487 23.4954 12V25.3184C23.4954 27.3517 21.8471 29 19.8138 29H4.68165C2.64833 29 1 27.3517 1 25.3184V4.68165C1 2.64833 2.64833 1 4.68165 1Z" stroke="#00753A" stroke-width="2"/>
<path d="M14 1.04938C18.7244 1.51844 22.4816 5.27558 22.9506 10H17.6816C15.6483 10 14 8.35167 14 6.31835V1.04938Z" stroke="#00753A" stroke-width="2"/>
<path d="M6.70312 22.0703H5.28906V21.0117H6.70312C6.89583 21.0117 7.05208 20.9792 7.17188 20.9141C7.29167 20.849 7.37891 20.7591 7.43359 20.6445C7.49089 20.5273 7.51953 20.3958 7.51953 20.25C7.51953 20.0938 7.49089 19.9492 7.43359 19.8164C7.37891 19.6836 7.29167 19.5768 7.17188 19.4961C7.05208 19.4128 6.89583 19.3711 6.70312 19.3711H5.80469V24H4.43359V18.3125H6.70312C7.15885 18.3125 7.55078 18.3958 7.87891 18.5625C8.20964 18.7292 8.46354 18.9583 8.64062 19.25C8.81771 19.5391 8.90625 19.8698 8.90625 20.2422C8.90625 20.6094 8.81771 20.9297 8.64062 21.2031C8.46354 21.4766 8.20964 21.6901 7.87891 21.8438C7.55078 21.9948 7.15885 22.0703 6.70312 22.0703ZM12.1722 24H10.9105L10.9183 22.9453H12.1722C12.4326 22.9453 12.6527 22.8828 12.8323 22.7578C13.0146 22.6328 13.1527 22.4466 13.2464 22.1992C13.3428 21.9492 13.3909 21.6419 13.3909 21.2773V21.0312C13.3909 20.7578 13.3636 20.5182 13.3089 20.3125C13.2568 20.1042 13.1787 19.931 13.0745 19.793C12.9704 19.6523 12.8402 19.5469 12.6839 19.4766C12.5303 19.4062 12.3532 19.3711 12.1527 19.3711H10.887V18.3125H12.1527C12.5381 18.3125 12.8909 18.3789 13.2112 18.5117C13.5342 18.6419 13.8128 18.8294 14.0472 19.0742C14.2842 19.3164 14.4665 19.6042 14.5941 19.9375C14.7243 20.2682 14.7894 20.6354 14.7894 21.0391V21.2773C14.7894 21.6784 14.7243 22.0456 14.5941 22.3789C14.4665 22.7122 14.2855 23 14.0511 23.2422C13.8167 23.4844 13.5394 23.6719 13.2191 23.8047C12.9014 23.9349 12.5524 24 12.1722 24ZM11.6956 18.3125V24H10.3245V18.3125H11.6956ZM17.5553 18.3125V24H16.1842V18.3125H17.5553ZM19.7662 20.6797V21.7344H17.1647V20.6797H19.7662ZM19.9889 18.3125V19.3711H17.1647V18.3125H19.9889Z" fill="#00753A"/>
</svg>
