<svg width="35" height="35" viewBox="0 0 35 35" fill="none" xmlns="http://www.w3.org/2000/svg">
<path d="M31.7679 30.8388C33.2608 29.3078 33.2608 27.2664 31.7679 25.7748L27.682 21.6923C26.975 20.9464 26.1107 20.554 25.1677 20.554C24.2642 20.554 23.3999 20.9467 22.6534 21.6923L20.2962 24.0478C20.0997 23.9301 19.9032 23.8515 19.707 23.7337C19.4318 23.616 19.1962 23.4588 18.9605 23.3411C16.7605 21.9669 14.7567 20.1219 12.8711 17.8058C11.9282 16.6281 11.2998 15.6466 10.8676 14.6261C11.4568 14.0765 12.0462 13.4878 12.5962 12.9382C12.7927 12.7419 13.0284 12.5064 13.2249 12.31C13.9714 11.5641 14.4035 10.6613 14.4035 9.75851C14.4035 8.85575 14.0105 7.99203 13.2249 7.20697L11.2212 5.16528C10.9855 4.92978 10.7498 4.69428 10.5533 4.4588C10.1212 3.98781 9.64983 3.51657 9.17818 3.08468C8.47118 2.3782 7.60689 1.9855 6.70311 1.9855C5.7996 1.9855 4.93531 2.37817 4.18881 3.08468L1.63537 5.63622C0.692442 6.57845 0.142441 7.71682 0.0245831 9.05147C-0.132441 11.2107 0.495929 13.2126 0.967514 14.5473C2.14616 17.7664 3.95317 20.789 6.62475 24.0081C9.88547 27.8946 13.7748 30.9172 18.2141 33.0764C19.9032 33.9009 22.1819 34.8428 24.7356 35H25.2069C26.8961 35 28.3499 34.3718 29.4498 33.1549L29.489 33.1158C29.882 32.6448 30.3141 32.213 30.7854 31.7811C31.1392 31.5065 31.4535 31.1924 31.7679 30.8389L31.7679 30.8388ZM29.4498 30.407C28.9785 30.878 28.4677 31.3492 28.0355 31.8988C27.289 32.7233 26.3855 33.0766 25.2461 33.0766H24.8926C22.6929 32.8802 20.6499 32.056 19.0784 31.3101C14.8749 29.2687 11.2212 26.403 8.15689 22.7521C5.64259 19.7293 3.95316 16.9028 2.81401 13.8802C2.10701 12.0351 1.87108 10.5827 1.98887 9.24802C2.06752 8.38437 2.42103 7.6779 3.01023 7.04972L5.52452 4.5373C5.87803 4.18405 6.27103 3.98772 6.66367 3.98772C7.13502 3.98772 7.52796 4.26265 7.80282 4.5373C8.27417 4.96914 8.66711 5.40094 9.13847 5.87195L11.849 8.58045C12.242 8.97313 12.4382 9.36551 12.4382 9.75821C12.4382 10.1509 12.2417 10.5433 11.849 10.936L11.2203 11.5642C10.5917 12.1923 10.0026 12.781 9.37391 13.3701L9.33473 13.4093C8.70609 14.0374 8.82393 14.6656 8.94176 15.058C8.94176 15.0972 8.94176 15.0972 8.98094 15.1366C9.49174 16.393 10.2382 17.6099 11.3774 19.0231C13.4203 21.5355 15.5811 23.4983 17.9381 24.9902C18.2524 25.1865 18.5668 25.3434 18.8416 25.5006C19.1168 25.6183 19.3524 25.7755 19.5881 25.8933C19.6273 25.8933 19.6273 25.9324 19.6668 25.9324C19.9024 26.0502 20.1381 26.1288 20.3738 26.1288C20.9629 26.1288 21.3559 25.7361 21.4738 25.6183L24.0272 23.0668C24.2629 22.8313 24.695 22.5172 25.1664 22.5172C25.6377 22.5172 25.9915 22.8313 26.2664 23.0668L30.352 27.1493C31.2949 28.0916 30.8628 28.9553 30.3128 29.5049C30.0785 29.8184 29.7642 30.0933 29.4498 30.4071L29.4498 30.407ZM18.1355 7.12781C18.2141 6.57824 18.7247 6.22498 19.2746 6.34275C21.6319 6.73543 23.7532 7.83457 25.4427 9.56193C27.1318 11.2893 28.2321 13.409 28.6642 15.7254C28.7429 16.2749 28.3891 16.7854 27.8786 16.8637H27.7216C27.2502 16.8637 26.8181 16.5104 26.7394 16.0391C26.4251 14.1155 25.4821 12.3098 24.0681 10.9357C22.6538 9.52246 20.886 8.61963 18.9609 8.26639C18.3712 8.1878 18.0177 7.67739 18.1355 7.12781H18.1355ZM33.0641 15.7643C32.4749 12.3096 30.8247 9.1693 28.3499 6.65673C25.8356 4.14431 22.6927 2.53472 19.2356 1.94601C18.6856 1.86742 18.3321 1.35728 18.4499 0.807714C18.5678 0.258136 19.0391 -0.0951169 19.5891 0.0226529C23.3998 0.650821 26.9355 2.45649 29.7248 5.24378C32.5143 8.03114 34.3604 11.5641 34.9891 15.4112C35.0677 15.9608 34.7139 16.4712 34.2034 16.5495H34.0464C33.5748 16.589 33.1426 16.2354 33.0642 15.7645L33.0641 15.7643Z" fill="rgb(160, 160, 160)"/>
</svg>
