<svg width="12" height="12" viewBox="0 0 12 12" fill="none" xmlns="http://www.w3.org/2000/svg">
<path d="M8.75973 11.9999C8.68629 11.9999 8.61285 11.997 8.53896 11.9914H8.53884C7.32524 11.8986 6.16334 11.4611 5.19004 10.7303C3.70399 9.61593 2.38404 8.29594 1.26977 6.80994C0.539029 5.83652 0.10137 4.67458 0.00862057 3.46103C-0.0562268 2.62692 0.247143 1.80618 0.838935 1.21484L1.59099 0.46276C1.88789 0.166417 2.29038 0 2.70992 0C3.12947 0 3.53187 0.166422 3.82886 0.46276L4.50893 1.14286C4.80561 1.43966 4.97225 1.84216 4.97225 2.26183C4.97225 2.68141 4.80561 3.08391 4.50893 3.38068L4.11939 3.77035C3.95934 3.93119 3.85967 4.14247 3.83734 4.36829C3.81502 4.59421 3.87127 4.8208 3.99673 5.00999C4.78573 6.19605 5.80288 7.21321 6.98894 8.00228C7.17812 8.12763 7.40482 8.18389 7.63061 8.16156C7.8564 8.13924 8.0677 8.03957 8.22854 7.87961L8.61862 7.48952C8.91541 7.19272 9.3179 7.02607 9.73756 7.02607C10.1572 7.02607 10.5596 7.19272 10.8564 7.48952L11.5365 8.16962V8.1695C11.8332 8.4663 12 8.8688 12 9.28859C12 9.70829 11.8332 10.1108 11.5365 10.4076L10.7844 11.1596C10.2479 11.6974 9.51945 11.9998 8.75983 12L8.75973 11.9999ZM2.71131 0.599313C2.45046 0.598755 2.20022 0.702115 2.01583 0.886628L1.26378 1.6387C0.796119 2.10603 0.556473 2.75467 0.60782 3.41388C0.691754 4.51376 1.0882 5.56678 1.75041 6.44875C2.83052 7.88953 4.10984 9.16957 5.55011 10.2503C6.43231 10.9126 7.48518 11.309 8.58489 11.393C9.24397 11.4434 9.89212 11.2037 10.3601 10.7369L11.1122 9.98485C11.2963 9.80057 11.3998 9.55066 11.3998 9.29015C11.3998 9.02964 11.2963 8.77973 11.1122 8.59545L10.4321 7.91536C10.245 7.73655 9.99625 7.63676 9.73751 7.63676C9.47868 7.63676 9.22988 7.73655 9.04284 7.91536L8.65252 8.30534H8.65264C8.39335 8.56307 8.05316 8.72347 7.6894 8.7593C7.32566 8.79513 6.96066 8.70427 6.65618 8.50202C5.40409 7.66902 4.33036 6.59526 3.49739 5.34313C3.29526 5.03842 3.20463 4.67309 3.24079 4.3092C3.27695 3.94522 3.43779 3.60499 3.69596 3.34593L4.08593 2.95584C4.27009 2.77156 4.37355 2.52177 4.37355 2.26114C4.37355 2.00062 4.27008 1.75072 4.08593 1.56644L3.40585 0.886345V0.886457C3.22158 0.701953 2.97122 0.598599 2.71049 0.599142L2.71131 0.599313Z" fill="black"/>
</svg>
