<svg width="565" height="300" viewBox="0 0 565 300" fill="none" xmlns="http://www.w3.org/2000/svg">
<rect width="565" height="300" fill="#E8E8E8"/>
<path d="M283 75C241.577 75 208 108.577 208 150C208 191.423 241.577 225 283 225C324.423 225 358 191.423 358 150C358 108.577 324.423 75 283 75ZM283 215.702C246.771 215.702 217.298 186.229 217.298 150C217.298 113.771 246.771 84.2976 283 84.2976C319.229 84.2976 348.702 113.771 348.702 150C348.702 186.229 319.229 215.702 283 215.702Z" fill="#C8CBC4"/>
<path d="M319.777 121.473H313.269C310.632 121.473 308.153 120.447 306.289 118.582L303.367 115.66C300.808 113.1 297.404 111.69 293.784 111.69L272.168 111.689C268.355 111.689 264.699 113.308 262.133 116.132L260.225 118.234C258.358 120.291 255.694 121.471 252.917 121.471H246.224C239.143 121.471 233.379 127.233 233.379 134.316V175.465C233.379 182.546 239.142 188.31 246.224 188.31H319.778C326.859 188.31 332.623 182.549 332.623 175.465L332.622 134.316C332.622 127.234 326.858 121.473 319.777 121.473L319.777 121.473ZM323.56 175.464C323.56 177.551 321.864 179.25 319.774 179.25H246.224C244.137 179.25 242.438 177.551 242.438 175.464V134.315C242.438 132.229 244.135 130.53 246.224 130.53H252.917C258.245 130.53 263.353 128.269 266.934 124.323L268.842 122.22C269.691 121.283 270.903 120.747 272.168 120.747H293.784C294.965 120.747 296.124 121.227 296.96 122.064L299.881 124.986C303.456 128.563 308.21 130.531 313.266 130.531H319.774C321.861 130.531 323.56 132.23 323.56 134.317L323.56 175.464Z" fill="#C8CBC4"/>
<path d="M283.001 127.143C270.397 127.143 260.145 137.397 260.145 149.999C260.145 150.626 260.19 151.242 260.238 151.856C261.187 163.591 271.024 172.855 283.001 172.855C294.973 172.855 304.806 163.597 305.763 151.867C305.813 151.249 305.858 150.629 305.858 149.999C305.857 137.396 295.604 127.143 283 127.143H283.001ZM299.011 151.864C298.082 159.879 291.261 166.125 283.001 166.125C274.737 166.125 267.915 159.876 266.989 151.858C266.919 151.246 266.872 150.628 266.872 149.998C266.872 141.106 274.107 133.87 283.001 133.87C291.892 133.87 299.128 141.105 299.128 149.998C299.128 150.63 299.083 151.251 299.011 151.864L299.011 151.864Z" fill="#C8CBC4"/>
<path d="M279.714 154.813C278.79 154.058 278.144 152.901 277.803 151.604C277.631 150.949 277.515 150.27 277.528 149.567C277.565 147.745 278.277 146.18 279.48 145.272C279.79 145.039 280.034 144.754 280.24 144.449C281.013 143.293 281.025 141.735 280.141 140.559C279.022 139.075 276.915 138.78 275.428 139.899C272.567 142.058 270.88 145.533 270.801 149.431C270.786 150.147 270.844 150.85 270.935 151.548C271.369 154.915 272.968 157.985 275.45 160.018C276.077 160.53 276.83 160.78 277.58 160.78C278.556 160.78 279.521 160.358 280.186 159.547C280.255 159.462 280.304 159.366 280.366 159.277C281.317 157.854 281.066 155.919 279.714 154.812L279.714 154.813Z" fill="#C8CBC4"/>
</svg>
