<svg width="12" height="12" viewBox="0 0 12 12" fill="none" xmlns="http://www.w3.org/2000/svg">
<mask id="path-1-inside-1_251_2508" fill="white">
<path d="M11.9936 2.69197C11.9936 2.29353 11.705 1.96943 11.3501 1.96943L7.99719 1.96953V0.997821C7.99719 0.44765 7.59848 0 7.10852 0H4.89133C4.40134 0 4.00266 0.447676 4.00266 0.997821V1.96953H0.650181C0.295236 1.96953 0.0064947 2.29343 0.0064947 2.69127L1.0778e-07 6.12805C-9.01122e-05 6.23956 0.0564667 6.34135 0.145768 6.38998C0.282335 6.46432 0.42287 6.53299 0.564123 6.60105V11.2775C0.564123 11.6757 0.852772 12 1.20762 12H10.7924C11.1472 12 11.4359 11.6759 11.4359 11.2775V6.53104C11.5806 6.45599 11.7231 6.37831 11.862 6.29607C11.9471 6.24573 12.0003 6.14648 12 6.03861L11.9936 2.69197ZM4.51994 0.997823C4.51994 0.767812 4.68664 0.580846 4.8913 0.580846H7.10859C7.30992 0.580846 7.47995 0.771763 7.47995 0.997823V1.96953H4.52003L4.51994 0.997823ZM10.9185 11.2776C10.9185 11.353 10.8595 11.4193 10.7923 11.4193L1.20753 11.4194C1.13916 11.4194 1.08134 11.3544 1.08134 11.2777V6.83151C2.20716 7.29568 3.46511 7.57422 4.83654 7.6596V8.0625C4.83654 8.35461 5.04825 8.59232 5.3084 8.59232H6.6914C6.95146 8.59232 7.16298 8.35451 7.16298 8.0625V7.65525C8.55246 7.56045 9.81069 7.26622 10.9182 6.77836V11.2777L10.9185 11.2776ZM5.35379 8.01166V7.04817H6.64594V8.01166H5.35379ZM7.16315 7.07135V6.99761C7.16315 6.70522 6.95163 6.46751 6.69157 6.46751H5.30841C5.04826 6.46751 4.83655 6.70532 4.83655 6.99761V7.07762C3.21652 6.97341 1.76418 6.5943 0.517449 5.94519L0.523492 2.69197C0.523492 2.6152 0.581402 2.55028 0.649957 2.55028H11.35C11.4184 2.55028 11.4762 2.615 11.4762 2.69238L11.4822 5.8621C10.2655 6.55042 8.813 6.95474 7.16308 7.07121L7.16315 7.07135Z"/>
</mask>
<path d="M11.9936 2.69197C11.9936 2.29353 11.705 1.96943 11.3501 1.96943L7.99719 1.96953V0.997821C7.99719 0.44765 7.59848 0 7.10852 0H4.89133C4.40134 0 4.00266 0.447676 4.00266 0.997821V1.96953H0.650181C0.295236 1.96953 0.0064947 2.29343 0.0064947 2.69127L1.0778e-07 6.12805C-9.01122e-05 6.23956 0.0564667 6.34135 0.145768 6.38998C0.282335 6.46432 0.42287 6.53299 0.564123 6.60105V11.2775C0.564123 11.6757 0.852772 12 1.20762 12H10.7924C11.1472 12 11.4359 11.6759 11.4359 11.2775V6.53104C11.5806 6.45599 11.7231 6.37831 11.862 6.29607C11.9471 6.24573 12.0003 6.14648 12 6.03861L11.9936 2.69197ZM4.51994 0.997823C4.51994 0.767812 4.68664 0.580846 4.8913 0.580846H7.10859C7.30992 0.580846 7.47995 0.771763 7.47995 0.997823V1.96953H4.52003L4.51994 0.997823ZM10.9185 11.2776C10.9185 11.353 10.8595 11.4193 10.7923 11.4193L1.20753 11.4194C1.13916 11.4194 1.08134 11.3544 1.08134 11.2777V6.83151C2.20716 7.29568 3.46511 7.57422 4.83654 7.6596V8.0625C4.83654 8.35461 5.04825 8.59232 5.3084 8.59232H6.6914C6.95146 8.59232 7.16298 8.35451 7.16298 8.0625V7.65525C8.55246 7.56045 9.81069 7.26622 10.9182 6.77836V11.2777L10.9185 11.2776ZM5.35379 8.01166V7.04817H6.64594V8.01166H5.35379ZM7.16315 7.07135V6.99761C7.16315 6.70522 6.95163 6.46751 6.69157 6.46751H5.30841C5.04826 6.46751 4.83655 6.70532 4.83655 6.99761V7.07762C3.21652 6.97341 1.76418 6.5943 0.517449 5.94519L0.523492 2.69197C0.523492 2.6152 0.581402 2.55028 0.649957 2.55028H11.35C11.4184 2.55028 11.4762 2.615 11.4762 2.69238L11.4822 5.8621C10.2655 6.55042 8.813 6.95474 7.16308 7.07121L7.16315 7.07135Z" fill="black"/>
<path d="M11.9936 2.69197H-5.01701V2.70816L-5.01698 2.72435L11.9936 2.69197ZM11.3501 1.96943V-15.0412H11.3496L11.3501 1.96943ZM7.99719 1.96953H-9.01345V18.9807L7.9977 18.9802L7.99719 1.96953ZM4.00266 1.96953V18.9802H21.0133V1.96953H4.00266ZM0.0064947 2.69127L17.0171 2.72341L17.0171 2.70734V2.69127H0.0064947ZM1.0778e-07 6.12805L-17.0106 6.09591L-17.0106 6.1051L-17.0106 6.11429L1.0778e-07 6.12805ZM0.145768 6.38998L-7.989 21.3294L-7.98715 21.3304L0.145768 6.38998ZM0.564123 6.60105H17.5748V-4.08488L7.94808 -8.72341L0.564123 6.60105ZM11.4359 6.53104L3.60332 -8.56905L-5.57477 -3.8083V6.53104H11.4359ZM11.862 6.29607L3.1988 -8.3433L3.19523 -8.34119L11.862 6.29607ZM12 6.03861L-5.01061 6.07099L-5.01059 6.08122L12 6.03861ZM4.51994 0.997823H-12.4907V0.999439L4.51994 0.997823ZM7.47995 1.96953V18.9802H24.4906V1.96953H7.47995ZM4.52003 1.96953L-12.4906 1.97115L-12.489 18.9802H4.52003V1.96953ZM10.9185 11.2776H27.9291V-12.6723L5.31561 -4.78386L10.9185 11.2776ZM10.7923 11.4193V-5.59137H10.7921L10.7923 11.4193ZM1.20753 11.4194V28.43H1.20771L1.20753 11.4194ZM1.08134 6.83151L7.56522 -8.89494L-15.9293 -18.5815V6.83151H1.08134ZM4.83654 7.6596H21.8472V-8.32493L5.89353 -9.31816L4.83654 7.6596ZM7.16298 7.65525L6.00511 -9.31594L-9.84766 -8.23437V7.65525H7.16298ZM10.9182 6.77836H27.9288V-19.3031L4.06062 -8.78878L10.9182 6.77836ZM10.9182 11.2777H-6.09246V35.2276L16.521 27.3391L10.9182 11.2777ZM5.35379 8.01166H-11.6568V25.0223H5.35379V8.01166ZM5.35379 7.04817V-9.96247H-11.6568V7.04817H5.35379ZM6.64594 7.04817H23.6566V-9.96247H6.64594V7.04817ZM6.64594 8.01166V25.0223H23.6566V8.01166H6.64594ZM7.16315 7.07135L-7.90492 14.9653L24.1738 7.07135H7.16315ZM4.83655 7.07762L3.7445 24.0532L21.8472 25.2177V7.07762H4.83655ZM0.517449 5.94519L-16.4932 5.91358L-16.5124 16.2567L-7.33819 21.0333L0.517449 5.94519ZM0.523492 2.69197L17.5341 2.72358L17.5341 2.70777V2.69197H0.523492ZM11.4762 2.69238H-5.5344V2.70836L-5.53437 2.72433L11.4762 2.69238ZM11.4822 5.8621L19.8579 20.6678L28.5115 15.7724L28.4928 5.83015L11.4822 5.8621ZM7.16308 7.07121L5.96526 -9.8972L-19.9709 -8.06633L-7.90499 14.9652L7.16308 7.07121ZM29.0043 2.69197C29.0043 -5.19485 22.8989 -15.0412 11.3501 -15.0412V18.9801C0.511041 18.9801 -5.01701 9.78192 -5.01701 2.69197H29.0043ZM11.3496 -15.0412L7.99667 -15.0411L7.9977 18.9802L11.3506 18.9801L11.3496 -15.0412ZM25.0078 1.96953V0.997821H-9.01345V1.96953H25.0078ZM25.0078 0.997821C25.0078 -7.04101 18.7922 -17.0106 7.10852 -17.0106V17.0106C-3.59521 17.0106 -9.01345 7.93631 -9.01345 0.997821H25.0078ZM7.10852 -17.0106H4.89133V17.0106H7.10852V-17.0106ZM4.89133 -17.0106C-6.79288 -17.0106 -13.008 -7.04038 -13.008 0.997821H21.0133C21.0133 7.93574 15.5956 17.0106 4.89133 17.0106V-17.0106ZM-13.008 0.997821V1.96953H21.0133V0.997821H-13.008ZM4.00266 -15.0411H0.650181V18.9802H4.00266V-15.0411ZM0.650181 -15.0411C-10.8798 -15.0411 -17.0041 -5.21619 -17.0041 2.69127H17.0171C17.0171 9.80304 11.4703 18.9802 0.650181 18.9802V-15.0411ZM-17.0041 2.65912L-17.0106 6.09591L17.0106 6.1602L17.0171 2.72341L-17.0041 2.65912ZM-17.0106 6.11429C-17.0152 11.7029 -14.1879 17.954 -7.989 21.3294L8.28053 -8.54948C14.3009 -5.27132 17.015 0.776269 17.0106 6.14181L-17.0106 6.11429ZM-7.98715 21.3304C-7.44886 21.6235 -6.97707 21.8497 -6.81983 21.9255L7.94808 -8.72341C7.89747 -8.74779 7.91959 -8.73743 7.96698 -8.71371C8.01857 -8.68788 8.13023 -8.6313 8.27869 -8.55049L-7.98715 21.3304ZM-16.4465 6.60105V11.2775H17.5748V6.60105H-16.4465ZM-16.4465 11.2775C-16.4465 19.1607 -10.3442 29.0106 1.20762 29.0106V-5.01064C12.0497 -5.01064 17.5748 4.19067 17.5748 11.2775H-16.4465ZM1.20762 29.0106H10.7924V-5.01064H1.20762V29.0106ZM10.7924 29.0106C22.3412 29.0106 28.4465 19.1643 28.4465 11.2775H-5.57477C-5.57477 4.18754 -0.0467369 -5.01064 10.7924 -5.01064V29.0106ZM28.4465 11.2775V6.53104H-5.57477V11.2775H28.4465ZM19.2684 21.6311C19.6129 21.4525 20.0464 21.2189 20.5287 20.9333L3.19523 -8.34119C3.39982 -8.46232 3.54825 -8.54049 3.60332 -8.56905L19.2684 21.6311ZM20.5252 20.9354C26.3442 17.4919 29.0243 11.4673 29.0106 5.996L-5.01059 6.08122C-5.02375 0.825677 -2.45014 -5.0004 3.1988 -8.3433L20.5252 20.9354ZM29.0106 6.00623L29.0042 2.65959L-5.01698 2.72435L-5.01061 6.07099L29.0106 6.00623ZM21.5306 0.997823C21.5306 8.26187 15.8755 17.5915 4.8913 17.5915V-16.4298C-6.50224 -16.4298 -12.4907 -6.72625 -12.4907 0.997823H21.5306ZM4.8913 17.5915H7.10859V-16.4298H4.8913V17.5915ZM7.10859 17.5915C-3.8841 17.5915 -9.53069 8.26005 -9.53069 0.997823H24.4906C24.4906 -6.71652 18.5039 -16.4298 7.10859 -16.4298V17.5915ZM-9.53069 0.997823V1.96953H24.4906V0.997823H-9.53069ZM7.47995 -15.0411H4.52003V18.9802H7.47995V-15.0411ZM21.5307 1.96792L21.5306 0.996207L-12.4907 0.999439L-12.4906 1.97115L21.5307 1.96792ZM-6.09217 11.2776C-6.09217 6.92508 -4.42509 2.98551 -1.82241 0.0631855C0.752375 -2.82782 5.10002 -5.59137 10.7923 -5.59137V28.4299C22.0533 28.4299 27.9291 18.8416 27.9291 11.2776H-6.09217ZM10.7921 -5.59137L1.20735 -5.59127L1.20771 28.43L10.7925 28.4299L10.7921 -5.59137ZM1.20753 -5.59127C12.3331 -5.59127 18.092 3.86603 18.092 11.2777H-15.9293C-15.9293 18.8429 -10.0547 28.43 1.20753 28.43V-5.59127ZM18.092 11.2777V6.83151H-15.9293V11.2777H18.092ZM-5.40254 22.558C-2.35556 23.8142 0.763393 24.4496 3.77955 24.6374L5.89353 -9.31816C6.16683 -9.30115 6.76989 -9.22285 7.56522 -8.89494L-5.40254 22.558ZM-12.1741 7.6596V8.0625H21.8472V7.6596H-12.1741ZM-12.1741 8.0625C-12.1741 15.8429 -6.14575 25.603 5.3084 25.603V-8.41832C16.2422 -8.41832 21.8472 0.866287 21.8472 8.0625H-12.1741ZM5.3084 25.603H6.6914V-8.41832H5.3084V25.603ZM6.6914 25.603C18.1575 25.603 24.1736 15.8292 24.1736 8.0625H-9.84766C-9.84766 0.879767 -4.25463 -8.41832 6.6914 -8.41832V25.603ZM24.1736 8.0625V7.65525H-9.84766V8.0625H24.1736ZM8.32085 24.6264C11.3909 24.417 14.6189 23.7361 17.7757 22.3455L4.06062 -8.78878C5.00246 -9.20367 5.71398 -9.29608 6.00511 -9.31594L8.32085 24.6264ZM-6.09246 6.77836V11.2777H27.9288V6.77836H-6.09246ZM16.521 27.3391L16.5213 27.339L5.31561 -4.78386L5.31532 -4.78376L16.521 27.3391ZM22.3644 8.01166V7.04817H-11.6568V8.01166H22.3644ZM5.35379 24.0588H6.64594V-9.96247H5.35379V24.0588ZM-10.3647 7.04817V8.01166H23.6566V7.04817H-10.3647ZM6.64594 -8.99898H5.35379V25.0223H6.64594V-8.99898ZM24.1738 7.07135V6.99761H-9.84749V7.07135H24.1738ZM24.1738 6.99761C24.1738 -0.765614 18.1612 -10.5431 6.69157 -10.5431V23.4782C-4.25793 23.4782 -9.84749 14.1761 -9.84749 6.99761H24.1738ZM6.69157 -10.5431H5.30841V23.4782H6.69157V-10.5431ZM5.30841 -10.5431C-6.15323 -10.5431 -12.1741 -0.774584 -12.1741 6.99761H21.8472C21.8472 14.1852 16.2497 23.4782 5.30841 23.4782V-10.5431ZM-12.1741 6.99761V7.07762H21.8472V6.99761H-12.1741ZM5.92861 -9.89792C6.28597 -9.87494 7.20483 -9.75117 8.37309 -9.14291L-7.33819 21.0333C-3.67647 22.9398 0.147069 23.8217 3.7445 24.0532L5.92861 -9.89792ZM17.5281 5.97679L17.5341 2.72358L-16.4871 2.66037L-16.4932 5.91358L17.5281 5.97679ZM17.5341 2.69197C17.5341 10.1367 11.7458 19.5609 0.649957 19.5609V-14.4604C-10.583 -14.4604 -16.4871 -4.90627 -16.4871 2.69197H17.5341ZM0.649957 19.5609H11.35V-14.4604H0.649957V19.5609ZM11.35 19.5609C0.209549 19.5609 -5.5344 10.0866 -5.5344 2.69238H28.4869C28.4869 -4.85661 22.6273 -14.4604 11.35 -14.4604V19.5609ZM-5.53437 2.72433L-5.52842 5.89405L28.4928 5.83015L28.4868 2.66043L-5.53437 2.72433ZM3.10648 -8.94362C4.47967 -9.72044 5.57736 -9.86982 5.96526 -9.8972L8.3609 24.0396C12.0486 23.7793 16.0512 22.8213 19.8579 20.6678L3.10648 -8.94362ZM-7.90499 14.9652L-7.90492 14.9653L22.2312 -0.822631L22.2312 -0.822765L-7.90499 14.9652Z" fill="black" mask="url(#path-1-inside-1_251_2508)"/>
</svg>
