<svg width="105" height="105" viewBox="0 0 105 105" fill="none" xmlns="http://www.w3.org/2000/svg">
<path d="M96.9704 0C92.5432 0 88.9414 3.86982 88.9414 8.62651V93.1875C88.9414 93.8115 89.1043 94.4207 89.411 94.9466L94.3518 103.44C94.9196 104.417 95.8993 105.001 96.9704 105.001C98.0415 105.001 99.0212 104.418 99.589 103.442L104.528 94.9513C104.837 94.4226 105 93.8134 105 93.1904L105 8.62698C105 3.87029 101.398 0.00047375 96.9705 0.00047375L96.9704 0ZM92.6464 17.2542H101.293V87.5973H92.6464V17.2542ZM96.9704 3.98192C99.3548 3.98192 101.294 6.06591 101.294 8.6277V13.2735H92.6475V8.6277C92.6467 6.06686 94.5863 3.98192 96.9706 3.98192H96.9704ZM96.9704 100.431L92.6464 92.9989V91.5796H101.293V92.9989L96.9704 100.431Z" fill="#69AB52"/>
<path d="M35.2062 19.9084H24.0889C23.0661 19.9084 22.2363 19.0178 22.2363 17.918C22.2363 16.8181 23.0661 15.9275 24.0889 15.9275H35.2062C36.229 15.9275 37.0588 16.8181 37.0588 17.918C37.0588 19.0178 36.229 19.9084 35.2062 19.9084Z" fill="#69AB52"/>
<path d="M64.8515 19.9084H43.8516C42.8288 19.9084 41.999 19.0178 41.999 17.918C41.999 16.8181 42.8288 15.9275 43.8516 15.9275H64.8515C65.8743 15.9275 66.7041 16.8181 66.7041 17.918C66.7041 19.0178 65.8743 19.9084 64.8515 19.9084Z" fill="#69AB52"/>
<path d="M35.2062 30.5262H24.0889C23.0661 30.5262 22.2363 29.6356 22.2363 28.5358C22.2363 27.4359 23.0661 26.5453 24.0889 26.5453H35.2062C36.229 26.5453 37.0588 27.4359 37.0588 28.5358C37.0588 29.6356 36.229 30.5262 35.2062 30.5262Z" fill="#69AB52"/>
<path d="M64.8515 30.5262H43.8516C42.8288 30.5262 41.999 29.6356 41.999 28.5358C41.999 27.4359 42.8288 26.5453 43.8516 26.5453H64.8515C65.8743 26.5453 66.7041 27.4359 66.7041 28.5358C66.7041 29.6356 65.8743 30.5262 64.8515 30.5262Z" fill="#69AB52"/>
<path d="M35.2062 51.7619H24.0889C23.0661 51.7619 22.2363 50.8713 22.2363 49.7715C22.2363 48.6716 23.0661 47.781 24.0889 47.781H35.2062C36.229 47.781 37.0588 48.6716 37.0588 49.7715C37.0588 50.8722 36.229 51.7619 35.2062 51.7619Z" fill="#69AB52"/>
<path d="M64.8515 51.7619H43.8516C42.8288 51.7619 41.999 50.8713 41.999 49.7715C41.999 48.6716 42.8288 47.781 43.8516 47.781H64.8515C65.8743 47.781 66.7041 48.6716 66.7041 49.7715C66.7041 50.8722 65.8743 51.7619 64.8515 51.7619Z" fill="#69AB52"/>
<path d="M35.2062 62.3797H24.0889C23.0661 62.3797 22.2363 61.4891 22.2363 60.3893C22.2363 59.2894 23.0661 58.3988 24.0889 58.3988H35.2062C36.229 58.3988 37.0588 59.2894 37.0588 60.3893C37.0588 61.4891 36.229 62.3797 35.2062 62.3797Z" fill="#69AB52"/>
<path d="M64.8515 62.3797H43.8516C42.8288 62.3797 41.999 61.4891 41.999 60.3893C41.999 59.2894 42.8288 58.3988 43.8516 58.3988H64.8515C65.8743 58.3988 66.7041 59.2894 66.7041 60.3893C66.7041 61.4891 65.8743 62.3797 64.8515 62.3797Z" fill="#69AB52"/>
<path d="M74.7354 0H14.2057C13.1829 0 12.3531 0.890618 12.3531 1.99046V13.2724H1.8526C0.829791 13.2724 0 14.163 0 15.2628V102.86C0 103.96 0.829791 104.85 1.8526 104.85H62.3824C63.4052 104.85 64.235 103.96 64.235 102.86V91.578H74.7361C75.7589 91.578 76.5887 90.6874 76.5887 89.5875V1.99046C76.5887 0.891543 75.7589 0 74.7361 0H74.7354ZM60.5291 100.869H3.7052V17.254H12.3521V89.5879C12.3521 90.6878 13.1819 91.5784 14.2047 91.5784H60.5285L60.5291 100.869ZM72.8821 87.5971H16.0582V3.98168H72.8821V87.5971Z" fill="#69AB52"/>
</svg>
