<svg width="79" height="117" viewBox="0 0 79 117" fill="none" xmlns="http://www.w3.org/2000/svg">
<path d="M60.9066 42.0985V22.0649L67.5537 19.4068V28.969H66.4914L62.9068 38.864L69.2813 45.5176L75.6558 38.864L72.0785 28.969H71.0162L71.0154 18.0193L78.8285 14.8959L39.4237 0L0.0147583 14.8967L17.9337 22.066V42.0922C6.85789 49.3363 0 61.7749 0 75.0651C0 96.7976 17.6792 114.48 39.4195 114.48C61.152 114.48 78.839 96.8012 78.839 75.0651C78.8398 61.7783 71.9786 49.3398 60.907 42.0985H60.9066ZM69.2847 40.51L66.8983 38.0165L68.9191 32.4326H69.6487L71.6662 38.0165L69.2847 40.51ZM39.4233 3.70875L69.272 14.9846L39.4233 26.926L9.57463 14.9846L39.4233 3.70875ZM39.4233 30.6567L57.4428 23.448V41.3669C55.9729 42.5865 54.0551 43.606 51.7229 44.4081C45.8703 46.4149 39.6029 46.2362 39.3451 46.2395C39.2949 46.2395 33.006 46.4149 27.1388 44.4007C24.8099 43.5961 22.8814 42.5651 21.4007 41.3275V23.4488L39.4233 30.6567ZM39.42 111.014C19.5939 111.014 3.46625 94.8832 3.46625 75.0598C3.46625 62.7676 9.88776 51.2635 20.2478 44.6946C21.8825 45.868 23.7534 46.9016 26.0114 47.678C32.4972 49.9031 39.3517 49.6955 39.3089 49.6922C39.3518 49.6955 39.6021 49.7029 40.0352 49.7029C41.9778 49.7029 47.4901 49.5201 52.842 47.6854C55.1065 46.9089 57.0599 45.9289 58.6838 44.7695C68.9829 51.3409 75.369 62.8136 75.369 75.063C75.3723 94.8817 59.2454 111.013 39.4195 111.013L39.42 111.014Z" fill="#69AB52"/>
<path d="M45.2538 83.4824H23.6683V80.24H45.2538C47.8889 80.24 50.0403 79.8076 51.7078 78.943C53.396 78.0783 54.6312 76.8946 55.4135 75.3917C56.1958 73.8889 56.5869 72.1802 56.5869 70.2656C56.5869 68.4745 56.1958 66.807 55.4135 65.2629C54.6518 63.7189 53.4371 62.4734 51.7696 61.5264C50.1226 60.5794 47.9507 60.1059 45.2538 60.1059H33.7354V101.795H29.9371V56.8326H45.2538C48.5477 56.8326 51.3167 57.3987 53.5607 58.531C55.8046 59.6427 57.4928 61.2073 58.6251 63.2248C59.7779 65.2218 60.3544 67.5481 60.3544 70.2038C60.3544 72.9625 59.7779 75.3403 58.6251 77.3372C57.4928 79.3136 55.8046 80.837 53.5607 81.9075C51.3373 82.9575 48.5683 83.4824 45.2538 83.4824ZM45.0685 88.0527V91.3261H23.6683V88.0527H45.0685Z" fill="#69AB52"/>
</svg>
