<svg width="20" height="20" viewBox="0 0 20 20" fill="none" xmlns="http://www.w3.org/2000/svg">
<path d="M10 12.25C11.2426 12.25 12.25 11.2426 12.25 10C12.25 8.75736 11.2426 7.75 10 7.75C8.75736 7.75 7.75 8.75736 7.75 10C7.75 11.2426 8.75736 12.25 10 12.25Z" stroke="#CCCCCC" stroke-width="2" stroke-linecap="round" stroke-linejoin="round"/>
<path d="M10 12.25C11.2426 12.25 12.25 11.2426 12.25 10C12.25 8.75736 11.2426 7.75 10 7.75C8.75736 7.75 7.75 8.75736 7.75 10C7.75 11.2426 8.75736 12.25 10 12.25Z" stroke="#CCCCCC" stroke-width="2" stroke-linecap="round" stroke-linejoin="round"/>
<path d="M15.55 12.25C15.4502 12.4762 15.4204 12.7271 15.4645 12.9704C15.5086 13.2137 15.6246 13.4382 15.7975 13.615L15.8425 13.66C15.982 13.7993 16.0926 13.9647 16.1681 14.1468C16.2436 14.3289 16.2824 14.5241 16.2824 14.7213C16.2824 14.9184 16.2436 15.1136 16.1681 15.2957C16.0926 15.4778 15.982 15.6432 15.8425 15.7825C15.7032 15.922 15.5378 16.0326 15.3557 16.1081C15.1736 16.1836 14.9784 16.2224 14.7812 16.2224C14.5841 16.2224 14.3889 16.1836 14.2068 16.1081C14.0247 16.0326 13.8593 15.922 13.72 15.7825L13.675 15.7375C13.4982 15.5646 13.2737 15.4486 13.0304 15.4045C12.7871 15.3604 12.5362 15.3902 12.31 15.49C12.0882 15.5851 11.899 15.7429 11.7657 15.9442C11.6325 16.1454 11.561 16.3812 11.56 16.6225V16.75C11.56 17.1478 11.402 17.5294 11.1207 17.8107C10.8394 18.092 10.4578 18.25 10.06 18.25C9.66218 18.25 9.28064 18.092 8.99934 17.8107C8.71804 17.5294 8.56 17.1478 8.56 16.75V16.6825C8.55419 16.4343 8.47384 16.1935 8.32938 15.9915C8.18493 15.7896 7.98305 15.6357 7.75 15.55C7.52379 15.4502 7.27286 15.4204 7.02956 15.4645C6.78626 15.5086 6.56176 15.6246 6.385 15.7975L6.34 15.8425C6.20069 15.982 6.03526 16.0926 5.85316 16.1681C5.67106 16.2436 5.47587 16.2824 5.27875 16.2824C5.08163 16.2824 4.88644 16.2436 4.70434 16.1681C4.52224 16.0926 4.35681 15.982 4.2175 15.8425C4.07804 15.7032 3.9674 15.5378 3.89191 15.3557C3.81642 15.1736 3.77757 14.9784 3.77757 14.7812C3.77757 14.5841 3.81642 14.3889 3.89191 14.2068C3.9674 14.0247 4.07804 13.8593 4.2175 13.72L4.2625 13.675C4.4354 13.4982 4.55139 13.2737 4.5955 13.0304C4.63962 12.7871 4.60984 12.5362 4.51 12.31C4.41493 12.0882 4.25707 11.899 4.05585 11.7657C3.85463 11.6325 3.61884 11.561 3.3775 11.56H3.25C2.85218 11.56 2.47064 11.402 2.18934 11.1207C1.90804 10.8394 1.75 10.4578 1.75 10.06C1.75 9.66218 1.90804 9.28064 2.18934 8.99934C2.47064 8.71804 2.85218 8.56 3.25 8.56H3.3175C3.56575 8.55419 3.8065 8.47384 4.00847 8.32938C4.21045 8.18493 4.36429 7.98305 4.45 7.75C4.54984 7.52379 4.57962 7.27286 4.5355 7.02956C4.49139 6.78626 4.3754 6.56176 4.2025 6.385L4.1575 6.34C4.01804 6.20069 3.9074 6.03526 3.83191 5.85316C3.75642 5.67106 3.71757 5.47587 3.71757 5.27875C3.71757 5.08163 3.75642 4.88644 3.83191 4.70434C3.9074 4.52224 4.01804 4.35681 4.1575 4.2175C4.29681 4.07804 4.46224 3.9674 4.64434 3.89191C4.82644 3.81642 5.02163 3.77757 5.21875 3.77757C5.41587 3.77757 5.61106 3.81642 5.79316 3.89191C5.97526 3.9674 6.14069 4.07804 6.28 4.2175L6.325 4.2625C6.50176 4.4354 6.72626 4.55139 6.96956 4.5955C7.21285 4.63962 7.46379 4.60984 7.69 4.51H7.75C7.97183 4.41493 8.16101 4.25707 8.29427 4.05585C8.42753 3.85463 8.49904 3.61884 8.5 3.3775V3.25C8.5 2.85218 8.65804 2.47064 8.93934 2.18934C9.22064 1.90804 9.60218 1.75 10 1.75C10.3978 1.75 10.7794 1.90804 11.0607 2.18934C11.342 2.47064 11.5 2.85218 11.5 3.25V3.3175C11.501 3.55884 11.5725 3.79463 11.7057 3.99585C11.839 4.19707 12.0282 4.35493 12.25 4.45C12.4762 4.54984 12.7271 4.57962 12.9704 4.5355C13.2137 4.49139 13.4382 4.3754 13.615 4.2025L13.66 4.1575C13.7993 4.01804 13.9647 3.9074 14.1468 3.83191C14.3289 3.75642 14.5241 3.71757 14.7213 3.71757C14.9184 3.71757 15.1136 3.75642 15.2957 3.83191C15.4778 3.9074 15.6432 4.01804 15.7825 4.1575C15.922 4.29681 16.0326 4.46224 16.1081 4.64434C16.1836 4.82644 16.2224 5.02163 16.2224 5.21875C16.2224 5.41587 16.1836 5.61106 16.1081 5.79316C16.0326 5.97526 15.922 6.14069 15.7825 6.28L15.7375 6.325C15.5646 6.50176 15.4486 6.72626 15.4045 6.96956C15.3604 7.21285 15.3902 7.46379 15.49 7.69V7.75C15.5851 7.97183 15.7429 8.16101 15.9442 8.29427C16.1454 8.42753 16.3812 8.49904 16.6225 8.5H16.75C17.1478 8.5 17.5294 8.65804 17.8107 8.93934C18.092 9.22064 18.25 9.60218 18.25 10C18.25 10.3978 18.092 10.7794 17.8107 11.0607C17.5294 11.342 17.1478 11.5 16.75 11.5H16.6825C16.4412 11.501 16.2054 11.5725 16.0042 11.7057C15.8029 11.839 15.6451 12.0282 15.55 12.25V12.25Z" stroke="#CCCCCC" stroke-width="2" stroke-linecap="round" stroke-linejoin="round"/>
<path d="M15.55 12.25C15.4502 12.4762 15.4204 12.7271 15.4645 12.9704C15.5086 13.2137 15.6246 13.4382 15.7975 13.615L15.8425 13.66C15.982 13.7993 16.0926 13.9647 16.1681 14.1468C16.2436 14.3289 16.2824 14.5241 16.2824 14.7213C16.2824 14.9184 16.2436 15.1136 16.1681 15.2957C16.0926 15.4778 15.982 15.6432 15.8425 15.7825C15.7032 15.922 15.5378 16.0326 15.3557 16.1081C15.1736 16.1836 14.9784 16.2224 14.7812 16.2224C14.5841 16.2224 14.3889 16.1836 14.2068 16.1081C14.0247 16.0326 13.8593 15.922 13.72 15.7825L13.675 15.7375C13.4982 15.5646 13.2737 15.4486 13.0304 15.4045C12.7871 15.3604 12.5362 15.3902 12.31 15.49C12.0882 15.5851 11.899 15.7429 11.7657 15.9442C11.6325 16.1454 11.561 16.3812 11.56 16.6225V16.75C11.56 17.1478 11.402 17.5294 11.1207 17.8107C10.8394 18.092 10.4578 18.25 10.06 18.25C9.66218 18.25 9.28064 18.092 8.99934 17.8107C8.71804 17.5294 8.56 17.1478 8.56 16.75V16.6825C8.55419 16.4343 8.47384 16.1935 8.32938 15.9915C8.18493 15.7896 7.98305 15.6357 7.75 15.55C7.52379 15.4502 7.27286 15.4204 7.02956 15.4645C6.78626 15.5086 6.56176 15.6246 6.385 15.7975L6.34 15.8425C6.20069 15.982 6.03526 16.0926 5.85316 16.1681C5.67106 16.2436 5.47587 16.2824 5.27875 16.2824C5.08163 16.2824 4.88644 16.2436 4.70434 16.1681C4.52224 16.0926 4.35681 15.982 4.2175 15.8425C4.07804 15.7032 3.9674 15.5378 3.89191 15.3557C3.81642 15.1736 3.77757 14.9784 3.77757 14.7812C3.77757 14.5841 3.81642 14.3889 3.89191 14.2068C3.9674 14.0247 4.07804 13.8593 4.2175 13.72L4.2625 13.675C4.4354 13.4982 4.55139 13.2737 4.5955 13.0304C4.63962 12.7871 4.60984 12.5362 4.51 12.31C4.41493 12.0882 4.25707 11.899 4.05585 11.7657C3.85463 11.6325 3.61884 11.561 3.3775 11.56H3.25C2.85218 11.56 2.47064 11.402 2.18934 11.1207C1.90804 10.8394 1.75 10.4578 1.75 10.06C1.75 9.66218 1.90804 9.28064 2.18934 8.99934C2.47064 8.71804 2.85218 8.56 3.25 8.56H3.3175C3.56575 8.55419 3.8065 8.47384 4.00847 8.32938C4.21045 8.18493 4.36429 7.98305 4.45 7.75C4.54984 7.52379 4.57962 7.27286 4.5355 7.02956C4.49139 6.78626 4.3754 6.56176 4.2025 6.385L4.1575 6.34C4.01804 6.20069 3.9074 6.03526 3.83191 5.85316C3.75642 5.67106 3.71757 5.47587 3.71757 5.27875C3.71757 5.08163 3.75642 4.88644 3.83191 4.70434C3.9074 4.52224 4.01804 4.35681 4.1575 4.2175C4.29681 4.07804 4.46224 3.9674 4.64434 3.89191C4.82644 3.81642 5.02163 3.77757 5.21875 3.77757C5.41587 3.77757 5.61106 3.81642 5.79316 3.89191C5.97526 3.9674 6.14069 4.07804 6.28 4.2175L6.325 4.2625C6.50176 4.4354 6.72626 4.55139 6.96956 4.5955C7.21285 4.63962 7.46379 4.60984 7.69 4.51H7.75C7.97183 4.41493 8.16101 4.25707 8.29427 4.05585C8.42753 3.85463 8.49904 3.61884 8.5 3.3775V3.25C8.5 2.85218 8.65804 2.47064 8.93934 2.18934C9.22064 1.90804 9.60218 1.75 10 1.75C10.3978 1.75 10.7794 1.90804 11.0607 2.18934C11.342 2.47064 11.5 2.85218 11.5 3.25V3.3175C11.501 3.55884 11.5725 3.79463 11.7057 3.99585C11.839 4.19707 12.0282 4.35493 12.25 4.45C12.4762 4.54984 12.7271 4.57962 12.9704 4.5355C13.2137 4.49139 13.4382 4.3754 13.615 4.2025L13.66 4.1575C13.7993 4.01804 13.9647 3.9074 14.1468 3.83191C14.3289 3.75642 14.5241 3.71757 14.7213 3.71757C14.9184 3.71757 15.1136 3.75642 15.2957 3.83191C15.4778 3.9074 15.6432 4.01804 15.7825 4.1575C15.922 4.29681 16.0326 4.46224 16.1081 4.64434C16.1836 4.82644 16.2224 5.02163 16.2224 5.21875C16.2224 5.41587 16.1836 5.61106 16.1081 5.79316C16.0326 5.97526 15.922 6.14069 15.7825 6.28L15.7375 6.325C15.5646 6.50176 15.4486 6.72626 15.4045 6.96956C15.3604 7.21285 15.3902 7.46379 15.49 7.69V7.75C15.5851 7.97183 15.7429 8.16101 15.9442 8.29427C16.1454 8.42753 16.3812 8.49904 16.6225 8.5H16.75C17.1478 8.5 17.5294 8.65804 17.8107 8.93934C18.092 9.22064 18.25 9.60218 18.25 10C18.25 10.3978 18.092 10.7794 17.8107 11.0607C17.5294 11.342 17.1478 11.5 16.75 11.5H16.6825C16.4412 11.501 16.2054 11.5725 16.0042 11.7057C15.8029 11.839 15.6451 12.0282 15.55 12.25V12.25Z" stroke="#CCCCCC" stroke-width="2" stroke-linecap="round" stroke-linejoin="round"/>
</svg>
