<svg width="13" height="19" viewBox="0 0 13 19" fill="none" xmlns="http://www.w3.org/2000/svg">
<path d="M9.99024 0.682708C10.4123 0.312916 11.0955 0.309513 11.5224 0.675076C11.9562 1.04656 11.9602 1.6569 11.5312 2.03268L2.83574 9.65042C2.41363 10.0202 1.73047 10.0236 1.30359 9.65805C0.869785 9.28656 0.865825 8.67623 1.29478 8.30044L9.99024 0.682708Z" fill="#666666"/>
<path d="M11.5371 15.9933C11.9592 16.3631 11.9631 16.9616 11.5458 17.3356C11.1217 17.7156 10.425 17.7191 9.9961 17.3433L1.30064 9.72558C0.878532 9.35579 0.874647 8.7573 1.29193 8.38332C1.71597 8.00329 2.41265 7.99982 2.8416 8.3756L11.5371 15.9933Z" fill="#666666"/>
</svg>
