<svg width="32" height="30" viewBox="0 0 32 30" fill="none" xmlns="http://www.w3.org/2000/svg">
<path d="M31.3039 15.0003C31.3039 23.2841 24.2964 29.9996 15.6504 29.9996C12.9067 29.9996 10.3293 29.3218 8.08564 28.135L2.58203 29.823C1.27086 30.2251 0.0432151 29.0164 0.484779 27.7581L2.24468 22.7429C0.820312 20.4837 0 17.8309 0 14.9993C0.00103969 6.71544 7.00645 0 15.6525 0C24.2975 0.00200821 31.3039 6.71644 31.3039 15.0003ZM15.6494 2.39177C8.39339 2.39177 2.49109 8.04889 2.49109 15.0033C2.49109 17.7626 3.42265 20.317 4.99777 22.3955L3.35507 27.0776L8.41002 25.5263C10.4894 26.8437 12.9774 27.6108 15.6494 27.6108C22.9053 27.6108 28.8097 21.9547 28.8097 15.0003C28.8118 8.04889 22.9064 2.39177 15.6494 2.39177ZM23.5551 18.4554C23.4574 18.3038 23.2016 18.2114 22.819 18.0267C22.4375 17.8419 20.5484 16.9533 20.198 16.8328C19.8445 16.7093 19.5887 16.647 19.333 17.0155C19.0803 17.384 18.3442 18.2114 18.1186 18.4584C17.8951 18.7044 17.6715 18.7356 17.2879 18.5538C16.9043 18.367 15.667 17.9815 14.2011 16.7294C13.0605 15.7534 12.2901 14.5515 12.0676 14.183C11.842 13.8154 12.0448 13.6166 12.235 13.4339C12.4066 13.2682 12.6187 13.0041 12.811 12.7883C13.0034 12.5744 13.0668 12.4228 13.1947 12.1768C13.3205 11.9307 13.257 11.7169 13.1624 11.5311C13.0668 11.3464 12.3005 9.53898 11.9793 8.80297C11.6601 8.06797 11.3409 8.18946 11.1163 8.18946C10.8928 8.18946 10.637 8.15934 10.3813 8.15934C10.1255 8.15934 9.70963 8.2487 9.35926 8.61721C9.00888 8.98572 8.01702 9.87435 8.01702 11.6837C8.01702 13.4951 9.39045 15.2413 9.58279 15.4863C9.77617 15.7303 12.2381 19.5649 16.138 21.037C20.04 22.508 20.04 22.017 20.7428 21.9547C21.4477 21.8925 23.0135 21.0661 23.3316 20.2086C23.6518 19.3471 23.6518 18.609 23.5551 18.4554Z" fill="white"/>
</svg>
