<svg width="37" height="29" viewBox="0 0 37 29" fill="none" xmlns="http://www.w3.org/2000/svg">
<path d="M29.4807 0.311523H7.60467C3.62188 0.311523 0.381836 3.72777 0.381836 7.9262V20.7428C0.381836 24.942 3.62188 28.3574 7.60467 28.3574H29.4807C33.4635 28.3574 36.7036 24.9412 36.7036 20.7428V7.9262C36.7036 3.72777 33.4635 0.311523 29.4807 0.311523ZM35.221 20.7435C35.221 24.0834 32.6459 26.8001 29.4807 26.8001H7.60467C4.43949 26.8001 1.86436 24.0827 1.86436 20.7435V7.9262C1.86436 4.58709 4.43949 1.86967 7.60467 1.86967H29.4807C32.6459 1.86967 35.221 4.58709 35.221 7.9262V20.7435Z" fill="white"/>
<path fill-rule="evenodd" clip-rule="evenodd" d="M7.60477 0H29.4808C33.6282 0 37.0001 3.55668 37.0001 7.9263V20.7429C37.0001 25.1125 33.6282 28.6692 29.4808 28.6692H7.60477C3.45739 28.6692 0.0854492 25.1133 0.0854492 20.7429V7.9263C0.0854492 3.55668 3.45737 0 7.60477 0ZM29.4808 26.4886C32.4811 26.4886 34.9246 23.9126 34.9246 20.7436V7.9263C34.9246 4.75814 32.4811 2.18139 29.4808 2.18139H7.60477C4.60444 2.18139 2.16096 4.75814 2.16096 7.9263V20.7436C2.16096 23.9118 4.60444 26.4886 7.60477 26.4886H29.4808ZM7.60477 0.311621H29.4808C33.4636 0.311621 36.7036 3.72786 36.7036 7.9263V20.7429C36.7036 24.9413 33.4636 28.3575 29.4808 28.3575H7.60477C3.62199 28.3575 0.381944 24.9421 0.381944 20.7429V7.9263C0.381944 3.72786 3.62199 0.311621 7.60477 0.311621ZM29.4808 26.8002C32.646 26.8002 35.2211 24.0835 35.2211 20.7436V7.9263C35.2211 4.58718 32.646 1.86977 29.4808 1.86977H7.60477C4.43959 1.86977 1.86446 4.58718 1.86446 7.9263V20.7436C1.86446 24.0828 4.43959 26.8002 7.60477 26.8002H29.4808Z" fill="white"/>
<path d="M25.1102 14.0528L14.8402 7.73058C14.6119 7.59034 14.328 7.588 14.0975 7.72668C13.8669 7.86535 13.7246 8.12323 13.7246 8.40292V21.0465C13.7246 21.3254 13.8669 21.5841 14.0967 21.7228C14.2109 21.7913 14.3384 21.8256 14.4659 21.8256C14.5956 21.8256 14.7246 21.7898 14.8402 21.7189L25.1102 15.3982C25.337 15.2588 25.4771 15.0025 25.4771 14.7259C25.4771 14.4493 25.3378 14.1922 25.1102 14.0528ZM15.2071 19.687V9.76162L23.2689 14.7251L15.2071 19.687Z" fill="white"/>
<path fill-rule="evenodd" clip-rule="evenodd" d="M14.8403 7.7306L25.1104 14.0528C25.338 14.1922 25.4773 14.4493 25.4773 14.7259C25.4773 15.0025 25.3372 15.2588 25.1104 15.3983L14.8403 21.7189C14.7247 21.7898 14.5957 21.8256 14.466 21.8256C14.3385 21.8256 14.211 21.7913 14.0968 21.7228C13.867 21.5841 13.7247 21.3255 13.7247 21.0466V8.40294C13.7247 8.12325 13.867 7.86538 14.0976 7.7267C14.3281 7.58803 14.612 7.59037 14.8403 7.7306ZM14.9902 7.46171L25.2597 13.7836C25.2598 13.7836 25.2597 13.7836 25.2597 13.7836C25.579 13.9794 25.7738 14.3395 25.7738 14.7259C25.7738 15.1132 25.5778 15.4719 25.2602 15.6672C25.2602 15.6672 25.2603 15.6671 25.2602 15.6672L14.9901 21.9878C14.8289 22.0867 14.6479 22.1372 14.466 22.1372C14.288 22.1372 14.1096 22.0894 13.9497 21.9934C13.6277 21.799 13.4282 21.4368 13.4282 21.0466V8.40294C13.4282 8.01158 13.6274 7.65047 13.9503 7.45625C14.2734 7.26189 14.6707 7.26552 14.9902 7.46171ZM15.2072 19.6871L23.2691 14.7251L15.2072 9.76165V19.6871ZM15.5037 19.1435L22.6825 14.7251L15.5037 10.3053V19.1435Z" fill="white"/>
</svg>
