<svg width="50" height="50" viewBox="0 0 50 50" fill="none" xmlns="http://www.w3.org/2000/svg">
<circle cx="25" cy="25" r="23.5" stroke="#959595" stroke-width="3"/>
<path d="M18.5511 34V31.7159L24.6108 25.7756C25.1903 25.1903 25.6733 24.6705 26.0597 24.2159C26.446 23.7614 26.7358 23.321 26.929 22.8949C27.1222 22.4687 27.2188 22.0142 27.2188 21.5312C27.2188 20.9801 27.0938 20.5085 26.8438 20.1165C26.5938 19.7188 26.25 19.4119 25.8125 19.196C25.375 18.9801 24.8778 18.8722 24.321 18.8722C23.7472 18.8722 23.2443 18.9915 22.8125 19.2301C22.3807 19.4631 22.0455 19.7955 21.8068 20.2273C21.5739 20.6591 21.4574 21.1733 21.4574 21.7699H18.4489C18.4489 20.6619 18.7017 19.6989 19.2074 18.8807C19.7131 18.0625 20.4091 17.429 21.2955 16.9801C22.1875 16.5312 23.2102 16.3068 24.3636 16.3068C25.5341 16.3068 26.5625 16.5256 27.4489 16.9631C28.3352 17.4006 29.0227 18 29.5114 18.7614C30.0057 19.5227 30.2528 20.392 30.2528 21.3693C30.2528 22.0227 30.1278 22.6648 29.8778 23.2955C29.6278 23.9261 29.1875 24.625 28.5568 25.392C27.9318 26.1591 27.054 27.0881 25.9233 28.179L22.9148 31.2386V31.358H30.517V34H18.5511Z" fill="#959595"/>
</svg>
