<svg width="50" height="50" viewBox="0 0 50 50" fill="none" xmlns="http://www.w3.org/2000/svg">
<circle cx="25" cy="25" r="23.5" stroke="#959595" stroke-width="3"/>
<path d="M24.8153 34.2386C23.5881 34.2386 22.4972 34.0284 21.5426 33.608C20.5938 33.1875 19.8438 32.6023 19.2926 31.8523C18.7415 31.1023 18.4489 30.2358 18.4148 29.2528H21.6193C21.6477 29.7244 21.804 30.1364 22.0881 30.4886C22.3722 30.8352 22.75 31.1051 23.2216 31.2983C23.6932 31.4915 24.2216 31.5881 24.8068 31.5881C25.4318 31.5881 25.9858 31.4801 26.4688 31.2642C26.9517 31.0426 27.3295 30.7358 27.6023 30.3438C27.875 29.9517 28.0085 29.5 28.0028 28.9886C28.0085 28.4602 27.8722 27.9943 27.5938 27.5909C27.3153 27.1875 26.9119 26.8722 26.3835 26.6449C25.8608 26.4176 25.2301 26.304 24.4915 26.304H22.9489V23.8665H24.4915C25.0994 23.8665 25.6307 23.7614 26.0852 23.5511C26.5455 23.3409 26.9063 23.0455 27.1676 22.6648C27.429 22.2784 27.5568 21.8324 27.5511 21.3267C27.5568 20.8324 27.446 20.4034 27.2188 20.0398C26.9972 19.6705 26.6818 19.3835 26.2727 19.179C25.8693 18.9744 25.3949 18.8722 24.8494 18.8722C24.3153 18.8722 23.821 18.9687 23.3665 19.1619C22.9119 19.3551 22.5455 19.6307 22.267 19.9886C21.9886 20.3409 21.8409 20.7614 21.8239 21.25H18.7812C18.804 20.2727 19.0852 19.4148 19.625 18.6761C20.1705 17.9318 20.8977 17.3523 21.8068 16.9375C22.7159 16.517 23.7358 16.3068 24.8665 16.3068C26.0313 16.3068 27.0426 16.5256 27.9006 16.9631C28.7642 17.3949 29.4318 17.9773 29.9034 18.7102C30.375 19.4432 30.6108 20.2528 30.6108 21.1392C30.6165 22.1222 30.3267 22.946 29.7415 23.6108C29.1619 24.2756 28.4006 24.7102 27.4574 24.9148V25.0511C28.6847 25.2216 29.625 25.6761 30.2784 26.4148C30.9375 27.1477 31.2642 28.0597 31.2585 29.1506C31.2585 30.1278 30.9801 31.0028 30.4233 31.7756C29.8722 32.5426 29.1108 33.1449 28.1392 33.5824C27.1733 34.0199 26.0653 34.2386 24.8153 34.2386Z" fill="#959595"/>
</svg>
